#N canvas 0 0 1472 893 10;
#X obj 184 291 dac~ 1 2;
#X msg 34 432 \; pd dsp 1;
#X obj 35 399 loadbang;
#X obj 9 42 r button1;
#X obj 93 43 r button2;
#X obj 172 43 r button3;
#X obj 242 44 r button4;
#X obj 333 42 r button5;
#X obj 403 43 r button6;
#X obj 687 195 r stage;
#X obj 732 80 loadbang;
#X msg 739 109 0;
#X obj 730 256 sel 0 1 2 3 4 5 6 7 8 9 10;
#X msg 191 485 53 55 59 62 67 71 74 77;
#X msg 190 524 48 55 60 64 67 72 76 79;
#X msg 192 564 45 53 60 65 69 72 74 77;
#X msg 193 603 43 52 60 64 67 71 74 76;
#X msg 196 643 45 53 60 65 69 72 76 81;
#X msg 198 690 45 52 60 64 69 72 76 79;
#X msg 197 727 45 50 57 62 66 69 74 78;
#X msg 199 774 48 53 60 65 69 72 77 81;
#X msg 201 815 48 53 60 65 68 72 75 80;
#X msg 201 852 36 48 60 64 67 72 76 79;
#N canvas 0 0 1485 929 button1 0;
#X obj 463 344 inlet;
#X obj 535 345 inlet;
#X obj 611 341 inlet;
#X obj 313 392 inlet;
#X obj 455 461 osc~;
#X obj 536 463 osc~;
#X obj 602 461 osc~;
#N canvas 0 0 1472 893 enveloping 0;
#X obj 518 235 inlet;
#X obj 686 489 outlet~;
#X obj 595 407 *~;
#X obj 593 439 *~;
#X obj 594 469 *~;
#X obj 625 467 +~;
#X obj 610 237 inlet;
#X msg 616 317 \$1;
#X text 727 118 Inlets: 1 - Execute envelope (float) 2 - Attack and
Decay pair;
#X obj 657 341 delay;
#X obj 469 387 line~;
#X msg 410 345 \$1 \$2;
#X obj 460 312 pack 0 1;
#X obj 774 381 pack 0 0;
#X msg 577 363 0;
#X msg 645 272 \$2;
#X connect 0 0 12 0;
#X connect 0 0 9 0;
#X connect 2 0 3 0;
#X connect 2 0 3 1;
#X connect 3 0 4 0;
#X connect 3 0 4 1;
#X connect 3 0 5 1;
#X connect 4 0 5 0;
#X connect 5 0 1 0;
#X connect 6 0 7 0;
#X connect 6 0 15 0;
#X connect 7 0 12 1;
#X connect 7 0 9 1;
#X connect 9 0 14 0;
#X connect 10 0 2 0;
#X connect 10 0 2 1;
#X connect 11 0 10 0;
#X connect 12 0 11 0;
#X connect 13 0 11 0;
#X connect 14 0 13 0;
#X connect 15 0 13 1;
#X restore 352 515 pd enveloping;
#X obj 401 551 *~;
#X obj 465 555 *~;
#X obj 544 551 *~;
#X obj 460 378 +;
#X obj 455 405 mtof;
#X obj 533 377 +;
#X obj 528 404 mtof;
#X obj 610 378 +;
#X obj 605 405 mtof;
#X obj 283 449 loadbang;
#X msg 330 479 10;
#X obj 334 611 outlet~;
#N canvas 0 0 1472 893 cycler 0;
#X obj 150 43 inlet;
#X msg 219 175 1;
#X msg 265 175 2;
#X msg 306 173 3;
#X obj 236 133 sel 0 1 2;
#X obj 232 99 random 3;
#X obj 52 81 r basetempo;
#X obj 89 204 pack 0 0;
#X obj 221 271 /;
#X obj 267 251 metro;
#X obj 141 81 t b b b;
#X obj 360 125 timer;
#X obj 271 37 bng 15 250 50 0 empty empty empty 17 7 0 10 -262144 -1
-1;
#X obj 351 40 r hitdecaymax;
#X obj 377 196 /;
#X obj 414 290 clip 0 1;
#X obj 351 335 sel 0;
#X obj 369 396 t b f;
#X obj 274 434 pack 0 1;
#X obj 113 496 outlet;
#X obj 170 506 outlet;
#X obj 247 503 outlet;
#X msg 70 288 \$2;
#X msg 126 285 \$1;
#X obj 76 253 t l l;
#X obj 55 129 t b f;
#X obj 692 175 f;
#X obj 701 249 -;
#X obj 630 239 t b f;
#X floatatom 774 302 5 0 0 0 - - -, f 5;
#N canvas 0 0 450 300 rout012 0;
#X obj 110 59 inlet;
#X obj 80 258 spigot;
#X obj 361 81 t l l;
#X msg 195 112 \$1;
#X obj 168 146 sel 0 1 2;
#X msg 107 183 1 0 0;
#X msg 179 185 0 1 0;
#X msg 254 185 0 0 1;
#X msg 101 226 \$1;
#X msg 176 230 \$2;
#X msg 253 233 \$3;
#X obj 158 264 spigot;
#X obj 251 267 spigot;
#X msg 355 179 \$2;
#X obj 77 290 outlet;
#X obj 153 289 outlet;
#X obj 250 294 outlet;
#X connect 0 0 2 0;
#X connect 1 0 14 0;
#X connect 2 0 13 0;
#X connect 2 1 3 0;
#X connect 3 0 4 0;
#X connect 4 0 5 0;
#X connect 4 1 6 0;
#X connect 4 2 7 0;
#X connect 5 0 8 0;
#X connect 5 0 9 0;
#X connect 5 0 10 0;
#X connect 6 0 8 0;
#X connect 6 0 9 0;
#X connect 6 0 10 0;
#X connect 7 0 8 0;
#X connect 7 0 9 0;
#X connect 7 0 10 0;
#X connect 8 0 1 1;
#X connect 9 0 11 1;
#X connect 10 0 12 1;
#X connect 11 0 15 0;
#X connect 12 0 16 0;
#X connect 13 0 12 0;
#X connect 13 0 11 0;
#X connect 13 0 1 0;
#X restore 180 472 pd rout012;
#X obj 96 163 /;
#X msg 33 171 60000;
#N canvas 0 0 450 300 count02 0;
#X obj 176 144 f;
#X obj 223 149 + 1;
#X obj 295 100 % 3;
#X obj 113 47 inlet;
#X obj 178 212 outlet;
#X connect 0 0 1 0;
#X connect 0 0 4 0;
#X connect 1 0 2 0;
#X connect 2 0 0 1;
#X connect 3 0 0 0;
#X restore 405 436 pd count02;
#X connect 0 0 10 0;
#X connect 1 0 7 0;
#X connect 2 0 7 0;
#X connect 3 0 7 0;
#X connect 4 0 1 0;
#X connect 4 1 2 0;
#X connect 4 2 3 0;
#X connect 5 0 4 0;
#X connect 6 0 25 0;
#X connect 7 0 24 0;
#X connect 8 0 9 1;
#X connect 9 0 11 1;
#X connect 10 0 9 0;
#X connect 10 1 5 0;
#X connect 10 2 11 0;
#X connect 11 0 28 0;
#X connect 12 0 10 0;
#X connect 13 0 14 1;
#X connect 13 0 26 1;
#X connect 14 0 15 0;
#X connect 14 0 29 0;
#X connect 15 0 16 0;
#X connect 16 1 17 0;
#X connect 17 0 33 0;
#X connect 17 1 18 1;
#X connect 18 0 30 0;
#X connect 22 0 8 0;
#X connect 23 0 8 1;
#X connect 24 0 22 0;
#X connect 24 1 23 0;
#X connect 25 0 32 0;
#X connect 25 1 31 1;
#X connect 26 0 27 0;
#X connect 27 0 14 0;
#X connect 28 0 26 0;
#X connect 28 1 27 1;
#X connect 30 0 19 0;
#X connect 30 1 20 0;
#X connect 30 2 21 0;
#X connect 31 0 7 1;
#X connect 32 0 31 0;
#X connect 33 0 18 0;
#X restore 376 368 pd cycler;
#X msg 270 480 5 4000;
#X obj 312 415 t b f;
#X obj 455 435 sig~;
#X obj 533 435 sig~;
#X obj 601 433 sig~;
#X obj 703 440 osc~;
#X obj 759 440 osc~;
#X obj 811 449 osc~;
#X obj 696 401 *~;
#X obj 861 404 line~;
#X obj 753 398 *~;
#X obj 810 402 *~;
#X obj 704 476 *~;
#X obj 755 473 *~;
#X obj 810 482 *~;
#X msg 858 377 \$1 5;
#X obj 897 456 sig~;
#X msg 897 430 500;
#X obj 697 522 +~;
#X obj 752 524 +~;
#X obj 807 524 +~;
#X obj 694 133 select -2 -1 0 1 2;
#X msg 981 357 3.03;
#X msg 1034 358 7.07;
#X msg 889 351 0.95;
#X msg 844 349 0.45;
#X msg 935 354 0;
#X msg 943 432 0;
#X obj 982 402 r depth;
#X msg 912 398 set \$1;
#N canvas 0 0 1472 893 enveloping 0;
#X obj 518 235 inlet;
#X obj 686 489 outlet~;
#X obj 595 407 *~;
#X obj 593 439 *~;
#X obj 594 469 *~;
#X obj 625 467 +~;
#X obj 610 237 inlet;
#X msg 616 317 \$1;
#X text 727 118 Inlets: 1 - Execute envelope (float) 2 - Attack and
Decay pair;
#X obj 657 341 delay;
#X obj 469 387 line~;
#X msg 410 345 \$1 \$2;
#X obj 460 312 pack 0 1;
#X obj 774 381 pack 0 0;
#X msg 577 363 0;
#X msg 645 272 \$2;
#X connect 0 0 12 0;
#X connect 0 0 9 0;
#X connect 2 0 3 0;
#X connect 2 0 3 1;
#X connect 3 0 4 0;
#X connect 3 0 4 1;
#X connect 3 0 5 1;
#X connect 4 0 5 0;
#X connect 5 0 1 0;
#X connect 6 0 7 0;
#X connect 6 0 15 0;
#X connect 7 0 12 1;
#X connect 7 0 9 1;
#X connect 9 0 14 0;
#X connect 10 0 2 0;
#X connect 10 0 2 1;
#X connect 11 0 10 0;
#X connect 12 0 11 0;
#X connect 13 0 11 0;
#X connect 14 0 13 0;
#X connect 15 0 13 1;
#X restore 446 516 pd enveloping;
#N canvas 0 0 1472 893 enveloping 0;
#X obj 518 235 inlet;
#X obj 686 489 outlet~;
#X obj 595 407 *~;
#X obj 593 439 *~;
#X obj 594 469 *~;
#X obj 625 467 +~;
#X obj 610 237 inlet;
#X msg 616 317 \$1;
#X text 727 118 Inlets: 1 - Execute envelope (float) 2 - Attack and
Decay pair;
#X obj 657 341 delay;
#X obj 469 387 line~;
#X msg 410 345 \$1 \$2;
#X obj 460 312 pack 0 1;
#X obj 774 381 pack 0 0;
#X msg 577 363 0;
#X msg 645 272 \$2;
#X connect 0 0 12 0;
#X connect 0 0 9 0;
#X connect 2 0 3 0;
#X connect 2 0 3 1;
#X connect 3 0 4 0;
#X connect 3 0 4 1;
#X connect 3 0 5 1;
#X connect 4 0 5 0;
#X connect 5 0 1 0;
#X connect 6 0 7 0;
#X connect 6 0 15 0;
#X connect 7 0 12 1;
#X connect 7 0 9 1;
#X connect 9 0 14 0;
#X connect 10 0 2 0;
#X connect 10 0 2 1;
#X connect 11 0 10 0;
#X connect 12 0 11 0;
#X connect 13 0 11 0;
#X connect 14 0 13 0;
#X connect 15 0 13 1;
#X restore 540 519 pd enveloping;
#X connect 0 0 11 0;
#X connect 1 0 13 0;
#X connect 2 0 15 0;
#X connect 3 0 22 0;
#X connect 4 0 8 0;
#X connect 5 0 9 0;
#X connect 6 0 10 0;
#X connect 7 0 8 1;
#X connect 8 0 19 0;
#X connect 9 0 19 0;
#X connect 10 0 19 0;
#X connect 11 0 12 0;
#X connect 12 0 23 0;
#X connect 13 0 14 0;
#X connect 14 0 24 0;
#X connect 15 0 16 0;
#X connect 16 0 25 0;
#X connect 17 0 21 0;
#X connect 17 0 18 0;
#X connect 20 0 7 0;
#X connect 20 1 51 0;
#X connect 20 2 52 0;
#X connect 21 0 7 1;
#X connect 21 0 51 1;
#X connect 21 0 52 1;
#X connect 22 0 20 0;
#X connect 22 1 42 0;
#X connect 23 0 29 0;
#X connect 23 0 39 0;
#X connect 24 0 31 0;
#X connect 24 0 40 0;
#X connect 25 0 32 0;
#X connect 25 0 41 0;
#X connect 26 0 33 0;
#X connect 27 0 34 0;
#X connect 28 0 35 0;
#X connect 29 0 26 0;
#X connect 30 0 29 1;
#X connect 30 0 31 1;
#X connect 30 0 32 1;
#X connect 31 0 27 0;
#X connect 32 0 28 0;
#X connect 33 0 39 1;
#X connect 34 0 40 1;
#X connect 35 0 41 1;
#X connect 36 0 30 0;
#X connect 37 0 33 1;
#X connect 37 0 34 1;
#X connect 37 0 35 1;
#X connect 38 0 37 0;
#X connect 39 0 4 0;
#X connect 40 0 5 0;
#X connect 41 0 6 0;
#X connect 42 0 46 0;
#X connect 42 0 38 0;
#X connect 42 1 45 0;
#X connect 42 1 38 0;
#X connect 42 2 47 0;
#X connect 42 2 48 0;
#X connect 42 3 43 0;
#X connect 42 3 38 0;
#X connect 42 4 44 0;
#X connect 42 4 38 0;
#X connect 43 0 36 0;
#X connect 44 0 36 0;
#X connect 45 0 36 0;
#X connect 46 0 36 0;
#X connect 47 0 36 0;
#X connect 48 0 37 0;
#X connect 49 0 50 0;
#X connect 50 0 38 0;
#X connect 51 0 9 1;
#X connect 52 0 10 1;
#X restore 19 113 pd button1;
#X obj 390 317 s basetempo;
#X obj 503 307 s hitdecaymax;
#X msg 496 270 8000;
#N canvas 0 0 1472 893 strum 0;
#X obj 422 470 inlet;
#X obj 494 471 inlet;
#X obj 570 467 inlet;
#X obj 414 587 osc~;
#X obj 495 589 osc~;
#X obj 561 587 osc~;
#X obj 360 677 *~;
#X obj 424 681 *~;
#X obj 503 677 *~;
#X obj 419 504 +;
#X obj 414 531 mtof;
#X obj 492 503 +;
#X obj 487 530 mtof;
#X obj 569 504 +;
#X obj 564 531 mtof;
#X obj 216 478 loadbang;
#X obj 293 737 outlet~;
#X msg 203 509 5 4000;
#X obj 414 561 sig~;
#X obj 492 561 sig~;
#X obj 560 559 sig~;
#N canvas 0 0 450 300 strumsub 0;
#X obj 91 28 inlet;
#X obj 91 63 t b b;
#X obj 33 269 outlet;
#X obj 107 268 outlet;
#X obj 168 267 outlet;
#X obj 242 266 outlet;
#X obj 296 265 outlet;
#X obj 370 264 outlet;
#X obj 431 263 outlet;
#X obj 505 262 outlet;
#X msg 287 122 0;
#X obj 282 175 sel 0 1 2 3 4 5 6 7;
#X obj 40 34 bng 15 250 50 0 empty empty empty 17 7 0 10 -262144 -1
-1;
#X floatatom 296 79 5 0 0 0 - - -, f 5;
#X obj 226 146 delay 500;
#X obj 215 190 f;
#X obj 93 214 t b f;
#X obj 114 158 sel 8;
#X obj 214 60 random 125;
#X obj 216 98 + 25;
#N canvas 511 296 450 300 count08 0;
#X obj 176 144 f;
#X obj 223 149 + 1;
#X obj 113 47 inlet;
#X obj 178 212 outlet;
#X obj 295 100 % 9;
#X connect 0 0 1 0;
#X connect 0 0 3 0;
#X connect 1 0 4 0;
#X connect 2 0 0 0;
#X connect 4 0 0 1;
#X restore 109 111 pd count08;
#X obj 31 106 t b;
#X connect 0 0 1 0;
#X connect 1 0 20 0;
#X connect 1 1 10 0;
#X connect 10 0 11 0;
#X connect 11 0 2 0;
#X connect 11 1 3 0;
#X connect 11 2 4 0;
#X connect 11 3 5 0;
#X connect 11 4 6 0;
#X connect 11 5 7 0;
#X connect 11 6 8 0;
#X connect 11 7 9 0;
#X connect 12 0 1 0;
#X connect 14 0 15 0;
#X connect 14 0 21 0;
#X connect 15 0 11 0;
#X connect 16 0 18 0;
#X connect 16 1 15 1;
#X connect 17 1 16 0;
#X connect 18 0 19 0;
#X connect 19 0 13 0;
#X connect 19 0 14 0;
#X connect 20 0 17 0;
#X connect 21 0 20 0;
#X restore 251 249 pd strumsub;
#X obj 270 153 inlet;
#X obj 777 477 inlet;
#X obj 849 478 inlet;
#X obj 925 474 inlet;
#X obj 769 594 osc~;
#X obj 850 596 osc~;
#X obj 916 594 osc~;
#X obj 715 684 *~;
#X obj 779 688 *~;
#X obj 858 684 *~;
#X obj 774 511 +;
#X obj 769 538 mtof;
#X obj 847 510 +;
#X obj 842 537 mtof;
#X obj 924 511 +;
#X obj 919 538 mtof;
#X obj 769 568 sig~;
#X obj 847 568 sig~;
#X obj 915 566 sig~;
#X obj 1112 483 inlet;
#X obj 1184 484 inlet;
#X obj 1104 600 osc~;
#X obj 1185 602 osc~;
#X obj 1050 690 *~;
#X obj 1114 694 *~;
#X obj 1109 517 +;
#X obj 1104 544 mtof;
#X obj 1182 516 +;
#X obj 1177 543 mtof;
#X obj 1104 574 sig~;
#X obj 1182 574 sig~;
#X msg 242 334 1;
#X msg 278 334 1;
#X msg 319 332 1;
#X msg 355 332 1;
#X msg 396 333 1;
#X msg 432 333 1;
#X msg 473 331 1;
#X msg 509 331 1;
#N canvas 0 0 1472 893 enveloping 0;
#X obj 518 235 inlet;
#X obj 686 489 outlet~;
#X obj 595 407 *~;
#X obj 593 439 *~;
#X obj 594 469 *~;
#X obj 625 467 +~;
#X obj 610 237 inlet;
#X msg 616 317 \$1;
#X text 727 118 Inlets: 1 - Execute envelope (float) 2 - Attack and
Decay pair;
#X obj 657 341 delay;
#X obj 469 387 line~;
#X msg 410 345 \$1 \$2;
#X obj 460 312 pack 0 1;
#X obj 774 381 pack 0 0;
#X msg 577 363 0;
#X msg 645 272 \$2;
#X connect 0 0 12 0;
#X connect 0 0 9 0;
#X connect 2 0 3 0;
#X connect 2 0 3 1;
#X connect 3 0 4 0;
#X connect 3 0 4 1;
#X connect 3 0 5 1;
#X connect 4 0 5 0;
#X connect 5 0 1 0;
#X connect 6 0 7 0;
#X connect 6 0 15 0;
#X connect 7 0 12 1;
#X connect 7 0 9 1;
#X connect 9 0 14 0;
#X connect 10 0 2 0;
#X connect 10 0 2 1;
#X connect 11 0 10 0;
#X connect 12 0 11 0;
#X connect 13 0 11 0;
#X connect 14 0 13 0;
#X connect 15 0 13 1;
#X restore 203 612 pd enveloping;
#N canvas 0 0 1472 893 enveloping 0;
#X obj 518 235 inlet;
#X obj 686 489 outlet~;
#X obj 595 407 *~;
#X obj 593 439 *~;
#X obj 594 469 *~;
#X obj 625 467 +~;
#X obj 610 237 inlet;
#X msg 616 317 \$1;
#X text 727 118 Inlets: 1 - Execute envelope (float) 2 - Attack and
Decay pair;
#X obj 657 341 delay;
#X obj 469 387 line~;
#X msg 410 345 \$1 \$2;
#X obj 460 312 pack 0 1;
#X obj 774 381 pack 0 0;
#X msg 577 363 0;
#X msg 645 272 \$2;
#X connect 0 0 12 0;
#X connect 0 0 9 0;
#X connect 2 0 3 0;
#X connect 2 0 3 1;
#X connect 3 0 4 0;
#X connect 3 0 4 1;
#X connect 3 0 5 1;
#X connect 4 0 5 0;
#X connect 5 0 1 0;
#X connect 6 0 7 0;
#X connect 6 0 15 0;
#X connect 7 0 12 1;
#X connect 7 0 9 1;
#X connect 9 0 14 0;
#X connect 10 0 2 0;
#X connect 10 0 2 1;
#X connect 11 0 10 0;
#X connect 12 0 11 0;
#X connect 13 0 11 0;
#X connect 14 0 13 0;
#X connect 15 0 13 1;
#X restore 420 628 pd enveloping;
#N canvas 0 0 1472 893 enveloping 0;
#X obj 518 235 inlet;
#X obj 686 489 outlet~;
#X obj 595 407 *~;
#X obj 593 439 *~;
#X obj 594 469 *~;
#X obj 625 467 +~;
#X obj 610 237 inlet;
#X msg 616 317 \$1;
#X text 727 118 Inlets: 1 - Execute envelope (float) 2 - Attack and
Decay pair;
#X obj 657 341 delay;
#X obj 469 387 line~;
#X msg 410 345 \$1 \$2;
#X obj 460 312 pack 0 1;
#X obj 774 381 pack 0 0;
#X msg 577 363 0;
#X msg 645 272 \$2;
#X connect 0 0 12 0;
#X connect 0 0 9 0;
#X connect 2 0 3 0;
#X connect 2 0 3 1;
#X connect 3 0 4 0;
#X connect 3 0 4 1;
#X connect 3 0 5 1;
#X connect 4 0 5 0;
#X connect 5 0 1 0;
#X connect 6 0 7 0;
#X connect 6 0 15 0;
#X connect 7 0 12 1;
#X connect 7 0 9 1;
#X connect 9 0 14 0;
#X connect 10 0 2 0;
#X connect 10 0 2 1;
#X connect 11 0 10 0;
#X connect 12 0 11 0;
#X connect 13 0 11 0;
#X connect 14 0 13 0;
#X connect 15 0 13 1;
#X restore 540 632 pd enveloping;
#N canvas 0 0 1472 893 enveloping 0;
#X obj 518 235 inlet;
#X obj 686 489 outlet~;
#X obj 595 407 *~;
#X obj 593 439 *~;
#X obj 594 469 *~;
#X obj 625 467 +~;
#X obj 610 237 inlet;
#X msg 616 317 \$1;
#X text 727 118 Inlets: 1 - Execute envelope (float) 2 - Attack and
Decay pair;
#X obj 657 341 delay;
#X obj 469 387 line~;
#X msg 410 345 \$1 \$2;
#X obj 460 312 pack 0 1;
#X obj 774 381 pack 0 0;
#X msg 577 363 0;
#X msg 645 272 \$2;
#X connect 0 0 12 0;
#X connect 0 0 9 0;
#X connect 2 0 3 0;
#X connect 2 0 3 1;
#X connect 3 0 4 0;
#X connect 3 0 4 1;
#X connect 3 0 5 1;
#X connect 4 0 5 0;
#X connect 5 0 1 0;
#X connect 6 0 7 0;
#X connect 6 0 15 0;
#X connect 7 0 12 1;
#X connect 7 0 9 1;
#X connect 9 0 14 0;
#X connect 10 0 2 0;
#X connect 10 0 2 1;
#X connect 11 0 10 0;
#X connect 12 0 11 0;
#X connect 13 0 11 0;
#X connect 14 0 13 0;
#X connect 15 0 13 1;
#X restore 675 633 pd enveloping;
#N canvas 0 0 1472 893 enveloping 0;
#X obj 518 235 inlet;
#X obj 686 489 outlet~;
#X obj 595 407 *~;
#X obj 593 439 *~;
#X obj 594 469 *~;
#X obj 625 467 +~;
#X obj 610 237 inlet;
#X msg 616 317 \$1;
#X text 727 118 Inlets: 1 - Execute envelope (float) 2 - Attack and
Decay pair;
#X obj 657 341 delay;
#X obj 469 387 line~;
#X msg 410 345 \$1 \$2;
#X obj 460 312 pack 0 1;
#X obj 774 381 pack 0 0;
#X msg 577 363 0;
#X msg 645 272 \$2;
#X connect 0 0 12 0;
#X connect 0 0 9 0;
#X connect 2 0 3 0;
#X connect 2 0 3 1;
#X connect 3 0 4 0;
#X connect 3 0 4 1;
#X connect 3 0 5 1;
#X connect 4 0 5 0;
#X connect 5 0 1 0;
#X connect 6 0 7 0;
#X connect 6 0 15 0;
#X connect 7 0 12 1;
#X connect 7 0 9 1;
#X connect 9 0 14 0;
#X connect 10 0 2 0;
#X connect 10 0 2 1;
#X connect 11 0 10 0;
#X connect 12 0 11 0;
#X connect 13 0 11 0;
#X connect 14 0 13 0;
#X connect 15 0 13 1;
#X restore 779 633 pd enveloping;
#N canvas 0 0 1472 893 enveloping 0;
#X obj 518 235 inlet;
#X obj 686 489 outlet~;
#X obj 595 407 *~;
#X obj 593 439 *~;
#X obj 594 469 *~;
#X obj 625 467 +~;
#X obj 610 237 inlet;
#X msg 616 317 \$1;
#X text 727 118 Inlets: 1 - Execute envelope (float) 2 - Attack and
Decay pair;
#X obj 657 341 delay;
#X obj 469 387 line~;
#X msg 410 345 \$1 \$2;
#X obj 460 312 pack 0 1;
#X obj 774 381 pack 0 0;
#X msg 577 363 0;
#X msg 645 272 \$2;
#X connect 0 0 12 0;
#X connect 0 0 9 0;
#X connect 2 0 3 0;
#X connect 2 0 3 1;
#X connect 3 0 4 0;
#X connect 3 0 4 1;
#X connect 3 0 5 1;
#X connect 4 0 5 0;
#X connect 5 0 1 0;
#X connect 6 0 7 0;
#X connect 6 0 15 0;
#X connect 7 0 12 1;
#X connect 7 0 9 1;
#X connect 9 0 14 0;
#X connect 10 0 2 0;
#X connect 10 0 2 1;
#X connect 11 0 10 0;
#X connect 12 0 11 0;
#X connect 13 0 11 0;
#X connect 14 0 13 0;
#X connect 15 0 13 1;
#X restore 883 638 pd enveloping;
#N canvas 0 0 1472 893 enveloping 0;
#X obj 518 235 inlet;
#X obj 686 489 outlet~;
#X obj 595 407 *~;
#X obj 593 439 *~;
#X obj 594 469 *~;
#X obj 625 467 +~;
#X obj 610 237 inlet;
#X msg 616 317 \$1;
#X text 727 118 Inlets: 1 - Execute envelope (float) 2 - Attack and
Decay pair;
#X obj 657 341 delay;
#X obj 469 387 line~;
#X msg 410 345 \$1 \$2;
#X obj 460 312 pack 0 1;
#X obj 774 381 pack 0 0;
#X msg 577 363 0;
#X msg 645 272 \$2;
#X connect 0 0 12 0;
#X connect 0 0 9 0;
#X connect 2 0 3 0;
#X connect 2 0 3 1;
#X connect 3 0 4 0;
#X connect 3 0 4 1;
#X connect 3 0 5 1;
#X connect 4 0 5 0;
#X connect 5 0 1 0;
#X connect 6 0 7 0;
#X connect 6 0 15 0;
#X connect 7 0 12 1;
#X connect 7 0 9 1;
#X connect 9 0 14 0;
#X connect 10 0 2 0;
#X connect 10 0 2 1;
#X connect 11 0 10 0;
#X connect 12 0 11 0;
#X connect 13 0 11 0;
#X connect 14 0 13 0;
#X connect 15 0 13 1;
#X restore 1028 643 pd enveloping;
#N canvas 0 0 1472 893 enveloping 0;
#X obj 518 235 inlet;
#X obj 686 489 outlet~;
#X obj 595 407 *~;
#X obj 593 439 *~;
#X obj 594 469 *~;
#X obj 625 467 +~;
#X obj 610 237 inlet;
#X msg 616 317 \$1;
#X text 727 118 Inlets: 1 - Execute envelope (float) 2 - Attack and
Decay pair;
#X obj 657 341 delay;
#X obj 469 387 line~;
#X msg 410 345 \$1 \$2;
#X obj 460 312 pack 0 1;
#X obj 774 381 pack 0 0;
#X msg 577 363 0;
#X msg 645 272 \$2;
#X connect 0 0 12 0;
#X connect 0 0 9 0;
#X connect 2 0 3 0;
#X connect 2 0 3 1;
#X connect 3 0 4 0;
#X connect 3 0 4 1;
#X connect 3 0 5 1;
#X connect 4 0 5 0;
#X connect 5 0 1 0;
#X connect 6 0 7 0;
#X connect 6 0 15 0;
#X connect 7 0 12 1;
#X connect 7 0 9 1;
#X connect 9 0 14 0;
#X connect 10 0 2 0;
#X connect 10 0 2 1;
#X connect 11 0 10 0;
#X connect 12 0 11 0;
#X connect 13 0 11 0;
#X connect 14 0 13 0;
#X connect 15 0 13 1;
#X restore 1140 650 pd enveloping;
#X connect 0 0 9 0;
#X connect 1 0 11 0;
#X connect 2 0 13 0;
#X connect 3 0 6 0;
#X connect 4 0 7 0;
#X connect 5 0 8 0;
#X connect 6 0 16 0;
#X connect 7 0 16 0;
#X connect 8 0 16 0;
#X connect 9 0 10 0;
#X connect 10 0 18 0;
#X connect 11 0 12 0;
#X connect 12 0 19 0;
#X connect 13 0 14 0;
#X connect 14 0 20 0;
#X connect 15 0 17 0;
#X connect 17 0 61 1;
#X connect 17 0 62 1;
#X connect 17 0 63 1;
#X connect 17 0 64 1;
#X connect 17 0 65 1;
#X connect 17 0 66 1;
#X connect 17 0 67 1;
#X connect 17 0 68 1;
#X connect 18 0 3 0;
#X connect 19 0 4 0;
#X connect 20 0 5 0;
#X connect 21 0 53 0;
#X connect 21 1 54 0;
#X connect 21 2 55 0;
#X connect 21 3 56 0;
#X connect 21 4 57 0;
#X connect 21 5 58 0;
#X connect 21 6 59 0;
#X connect 21 7 60 0;
#X connect 22 0 21 0;
#X connect 23 0 32 0;
#X connect 24 0 34 0;
#X connect 25 0 36 0;
#X connect 26 0 29 0;
#X connect 27 0 30 0;
#X connect 28 0 31 0;
#X connect 29 0 16 0;
#X connect 30 0 16 0;
#X connect 31 0 16 0;
#X connect 32 0 33 0;
#X connect 33 0 38 0;
#X connect 34 0 35 0;
#X connect 35 0 39 0;
#X connect 36 0 37 0;
#X connect 37 0 40 0;
#X connect 38 0 26 0;
#X connect 39 0 27 0;
#X connect 40 0 28 0;
#X connect 41 0 47 0;
#X connect 42 0 49 0;
#X connect 43 0 45 0;
#X connect 44 0 46 0;
#X connect 45 0 16 0;
#X connect 46 0 16 0;
#X connect 47 0 48 0;
#X connect 48 0 51 0;
#X connect 49 0 50 0;
#X connect 50 0 52 0;
#X connect 51 0 43 0;
#X connect 52 0 44 0;
#X connect 53 0 61 0;
#X connect 54 0 62 0;
#X connect 55 0 63 0;
#X connect 56 0 64 0;
#X connect 57 0 65 0;
#X connect 58 0 66 0;
#X connect 59 0 67 0;
#X connect 60 0 68 0;
#X connect 61 0 6 1;
#X connect 62 0 7 1;
#X connect 63 0 8 1;
#X connect 64 0 29 1;
#X connect 65 0 30 1;
#X connect 66 0 31 1;
#X connect 67 0 45 1;
#X connect 68 0 46 1;
#X restore 397 670 pd strum;
#X obj 707 228 t b f;
#X msg 375 860 48 55 60 67 72 76 79 84;
#X obj 367 217 loadbang;
#X msg 383 280 100;
#X obj 603 117 loadbang;
#X msg 612 169 0;
#X msg 29 75 2;
#N canvas 0 0 450 300 defnotunpack 0;
#X obj 112 50 inlet;
#X msg 91 89 \$1;
#X msg 143 86 \$2;
#X msg 199 89 \$3;
#X msg 251 86 \$4;
#X msg 296 86 \$5;
#X msg 348 83 \$6;
#X msg 404 86 \$7;
#X msg 456 83 \$8;
#X obj 53 165 outlet;
#X obj 112 165 outlet;
#X obj 175 167 outlet;
#X obj 234 167 outlet;
#X obj 298 163 outlet;
#X obj 357 163 outlet;
#X obj 420 165 outlet;
#X obj 479 165 outlet;
#X connect 0 0 1 0;
#X connect 0 0 2 0;
#X connect 0 0 3 0;
#X connect 0 0 4 0;
#X connect 0 0 5 0;
#X connect 0 0 6 0;
#X connect 0 0 7 0;
#X connect 0 0 8 0;
#X connect 1 0 9 0;
#X connect 2 0 10 0;
#X connect 3 0 11 0;
#X connect 4 0 12 0;
#X connect 5 0 13 0;
#X connect 6 0 14 0;
#X connect 7 0 15 0;
#X connect 8 0 16 0;
#X restore 460 530 pd defnotunpack;
#X obj 126 205 *~ 0.05;
#X msg 553 55 1;
#X obj 540 94 metro 4000;
#X connect 2 0 1 0;
#X connect 3 0 34 0;
#X connect 3 0 33 0;
#X connect 9 0 28 0;
#X connect 10 0 11 0;
#X connect 11 0 12 0;
#X connect 12 0 13 0;
#X connect 12 1 14 0;
#X connect 12 2 15 0;
#X connect 12 3 16 0;
#X connect 12 4 17 0;
#X connect 12 5 18 0;
#X connect 12 6 19 0;
#X connect 12 7 20 0;
#X connect 12 8 21 0;
#X connect 12 9 22 0;
#X connect 12 10 29 0;
#X connect 13 0 35 0;
#X connect 14 0 35 0;
#X connect 15 0 35 0;
#X connect 16 0 35 0;
#X connect 17 0 35 0;
#X connect 18 0 35 0;
#X connect 19 0 35 0;
#X connect 20 0 35 0;
#X connect 21 0 35 0;
#X connect 22 0 35 0;
#X connect 23 0 36 0;
#X connect 26 0 25 0;
#X connect 27 0 36 0;
#X connect 28 0 27 0;
#X connect 28 1 12 0;
#X connect 29 0 35 0;
#X connect 30 0 31 0;
#X connect 30 0 26 0;
#X connect 31 0 24 0;
#X connect 32 0 33 0;
#X connect 32 0 37 0;
#X connect 33 0 28 0;
#X connect 34 0 23 0;
#X connect 35 0 27 1;
#X connect 35 0 23 1;
#X connect 35 1 27 2;
#X connect 35 1 23 2;
#X connect 35 2 27 3;
#X connect 35 2 23 3;
#X connect 35 3 27 4;
#X connect 35 4 27 5;
#X connect 35 5 27 6;
#X connect 35 6 27 7;
#X connect 35 7 27 8;
#X connect 36 0 0 0;
#X connect 36 0 0 1;
#X connect 37 0 38 0;
#X connect 38 0 33 0;
