#N canvas 369 0 733 893 10;
#X obj 184 291 dac~ 1 2;
#X msg 34 432 \; pd dsp 1;
#X obj 35 399 loadbang;
#X obj 9 42 r button1;
#X obj 93 43 r button2;
#X obj 172 43 r button3;
#X obj 242 44 r button4;
#X obj 333 42 r button5;
#X obj 403 43 r button6;
#X obj 687 195 r stage;
#X obj 732 80 loadbang;
#X msg 739 109 0;
#X obj 730 256 sel 0 1 2 3 4 5 6 7 8 9 10;
#X msg 191 485 53 55 59 62 67 71 74 77;
#X msg 190 524 48 55 60 64 67 72 76 79;
#X msg 192 564 45 53 60 65 69 72 74 77;
#X msg 193 603 43 52 60 64 67 71 74 76;
#X msg 196 643 45 53 60 65 69 72 76 81;
#X msg 198 690 45 52 60 64 69 72 76 79;
#X msg 197 727 45 50 57 62 66 69 74 78;
#X msg 199 774 48 53 60 65 69 72 77 81;
#X msg 201 815 48 53 60 65 68 72 75 80;
#X msg 201 852 36 48 60 64 67 72 76 79;
#X obj 418 504 unpack 0 1 2 3 4 5 6 7;
#N canvas 369 0 733 893 button1 0;
#X obj 463 344 inlet;
#X obj 535 345 inlet;
#X obj 611 341 inlet;
#X obj 313 392 inlet;
#X obj 455 461 osc~;
#X obj 536 463 osc~;
#X obj 602 461 osc~;
#N canvas 0 0 1472 893 enveloping 0;
#X obj 595 371 vline~;
#X obj 674 430 pow~;
#X msg 753 357 20;
#X obj 765 321 loadbang;
#X obj 518 235 inlet;
#X obj 594 230 inlet;
#X obj 707 400 sig~;
#X obj 851 375 inlet;
#X obj 686 489 outlet~;
#X text 727 118 Inlets: 1 - Execute envelope (bang) 2 - Attack and
Decay pair 3 - log magnitude;
#X obj 591 261 unpack 0 0;
#X obj 582 293 pack 0 0 0;
#X msg 590 327 \$1 \$2 \, 0 \$3 \$2;
#X connect 0 0 1 0;
#X connect 1 0 8 0;
#X connect 2 0 6 0;
#X connect 3 0 2 0;
#X connect 4 0 11 0;
#X connect 5 0 10 0;
#X connect 6 0 1 1;
#X connect 7 0 6 0;
#X connect 10 0 11 1;
#X connect 10 1 11 2;
#X connect 11 0 12 0;
#X connect 12 0 0 0;
#X restore 361 500 pd enveloping;
#N canvas 0 0 1500 917 enveloping 0;
#X obj 595 371 vline~;
#X obj 674 430 pow~;
#X msg 753 357 20;
#X obj 765 321 loadbang;
#X obj 518 235 inlet;
#X obj 594 230 inlet;
#X obj 707 400 sig~;
#X obj 851 375 inlet;
#X obj 686 489 outlet~;
#X text 727 118 Inlets: 1 - Execute envelope (bang) 2 - Attack and
Decay pair 3 - log magnitude;
#X obj 591 261 unpack 0 0;
#X obj 582 293 pack 0 0 0;
#X msg 590 327 \$1 \$2 \, 0 \$3 \$2;
#X connect 0 0 1 0;
#X connect 1 0 8 0;
#X connect 2 0 6 0;
#X connect 3 0 2 0;
#X connect 4 0 11 0;
#X connect 5 0 10 0;
#X connect 6 0 1 1;
#X connect 7 0 6 0;
#X connect 10 0 11 1;
#X connect 10 1 11 2;
#X connect 11 0 12 0;
#X connect 12 0 0 0;
#X restore 478 503 pd enveloping;
#N canvas 0 0 1500 917 enveloping 0;
#X obj 595 371 vline~;
#X obj 674 430 pow~;
#X msg 753 357 20;
#X obj 765 321 loadbang;
#X obj 518 235 inlet;
#X obj 594 230 inlet;
#X obj 707 400 sig~;
#X obj 851 375 inlet;
#X obj 686 489 outlet~;
#X text 727 118 Inlets: 1 - Execute envelope (bang) 2 - Attack and
Decay pair 3 - log magnitude;
#X obj 591 261 unpack 0 0;
#X obj 582 293 pack 0 0 0;
#X msg 590 327 \$1 \$2 \, 0 \$3 \$2;
#X connect 0 0 1 0;
#X connect 1 0 8 0;
#X connect 2 0 6 0;
#X connect 3 0 2 0;
#X connect 4 0 11 0;
#X connect 5 0 10 0;
#X connect 6 0 1 1;
#X connect 7 0 6 0;
#X connect 10 0 11 1;
#X connect 10 1 11 2;
#X connect 11 0 12 0;
#X connect 12 0 0 0;
#X restore 596 506 pd enveloping;
#X obj 401 551 *~;
#X obj 465 555 *~;
#X obj 544 551 *~;
#X obj 460 378 +;
#X obj 455 405 mtof;
#X obj 533 377 +;
#X obj 528 404 mtof;
#X obj 610 378 +;
#X obj 605 405 mtof;
#X obj 283 449 loadbang;
#X msg 330 479 10;
#X obj 334 611 outlet~;
#N canvas 511 296 450 300 cycler 0;
#X obj 150 43 inlet;
#X msg 219 175 1;
#X msg 265 175 2;
#X msg 306 173 3;
#X obj 236 133 sel 0 1 2;
#X obj 232 99 random 3;
#X obj 49 151 r basetempo;
#X obj 89 204 pack 0 0;
#X msg 87 227 \$2 \$1;
#X obj 88 253 unpack 0 0;
#X obj 221 271 /;
#X obj 267 251 metro;
#X obj 141 81 t b b b;
#X obj 360 125 timer;
#X obj 271 37 bng 15 250 50 0 empty empty empty 17 7 0 10 -262144 -1
-1;
#X obj 41 173 expr 60000 / $f1;
#X obj 351 40 r hitdecaymax;
#X obj 377 196 /;
#X floatatom 347 248 5 0 0 0 - - -, f 5;
#X obj 370 161 expr $f2 - $f1;
#X obj 414 290 clip 0 1;
#X obj 351 335 sel 0;
#X floatatom 496 491 5 0 0 0 - - -, f 5;
#X obj 515 437 counter 0 2;
#X obj 369 396 t b f;
#X obj 274 434 pack 0 1;
#X obj 166 466 route 0 1 2;
#X obj 113 496 outlet;
#X obj 170 506 outlet;
#X obj 247 503 outlet;
#X msg 509 379 set 0;
#X connect 0 0 12 0;
#X connect 1 0 7 0;
#X connect 2 0 7 0;
#X connect 3 0 7 0;
#X connect 4 0 1 0;
#X connect 4 1 2 0;
#X connect 4 2 3 0;
#X connect 5 0 4 0;
#X connect 6 0 15 0;
#X connect 7 0 8 0;
#X connect 8 0 9 0;
#X connect 9 0 10 0;
#X connect 9 1 10 1;
#X connect 10 0 11 1;
#X connect 11 0 13 1;
#X connect 12 0 11 0;
#X connect 12 1 5 0;
#X connect 12 2 13 0;
#X connect 13 0 19 0;
#X connect 14 0 12 0;
#X connect 15 0 7 1;
#X connect 16 0 17 1;
#X connect 16 0 19 1;
#X connect 17 0 18 0;
#X connect 17 0 20 0;
#X connect 19 0 17 0;
#X connect 20 0 21 0;
#X connect 21 1 24 0;
#X connect 23 0 22 0;
#X connect 23 0 25 0;
#X connect 24 0 23 0;
#X connect 24 1 25 1;
#X connect 25 0 26 0;
#X connect 26 0 27 0;
#X connect 26 1 28 0;
#X connect 26 2 29 0;
#X connect 30 0 23 0;
#X restore 376 368 pd cycler;
#X msg 270 480 5 4000;
#X obj 312 415 t b f;
#X obj 455 435 sig~;
#X obj 533 435 sig~;
#X obj 601 433 sig~;
#X obj 703 440 osc~;
#X obj 759 440 osc~;
#X obj 811 449 osc~;
#X obj 696 401 *~;
#X obj 861 404 line~;
#X obj 753 398 *~;
#X obj 810 402 *~;
#X obj 704 476 *~;
#X obj 755 473 *~;
#X obj 810 482 *~;
#X msg 858 377 \$1 5;
#X obj 897 456 sig~;
#X msg 897 430 500;
#X obj 697 522 +~;
#X obj 752 524 +~;
#X obj 807 524 +~;
#X obj 694 133 select -2 -1 0 1 2;
#X msg 981 357 3.03;
#X msg 1034 358 7.07;
#X msg 889 351 0.95;
#X msg 844 349 0.45;
#X msg 935 354 0;
#X msg 943 432 0;
#X obj 982 402 r depth;
#X msg 912 398 set \$1;
#X connect 0 0 13 0;
#X connect 1 0 15 0;
#X connect 2 0 17 0;
#X connect 3 0 24 0;
#X connect 4 0 10 0;
#X connect 5 0 11 0;
#X connect 6 0 12 0;
#X connect 7 0 10 1;
#X connect 8 0 11 1;
#X connect 9 0 12 1;
#X connect 10 0 21 0;
#X connect 11 0 21 0;
#X connect 12 0 21 0;
#X connect 13 0 14 0;
#X connect 14 0 25 0;
#X connect 15 0 16 0;
#X connect 16 0 26 0;
#X connect 17 0 18 0;
#X connect 18 0 27 0;
#X connect 19 0 23 0;
#X connect 19 0 20 0;
#X connect 20 0 7 2;
#X connect 20 0 8 2;
#X connect 20 0 9 2;
#X connect 22 0 7 0;
#X connect 22 1 8 0;
#X connect 22 2 9 0;
#X connect 23 0 7 1;
#X connect 23 0 8 1;
#X connect 23 0 9 1;
#X connect 24 0 22 0;
#X connect 24 1 44 0;
#X connect 25 0 31 0;
#X connect 25 0 41 0;
#X connect 26 0 33 0;
#X connect 26 0 42 0;
#X connect 27 0 34 0;
#X connect 27 0 43 0;
#X connect 28 0 35 0;
#X connect 29 0 36 0;
#X connect 30 0 37 0;
#X connect 31 0 28 0;
#X connect 32 0 31 1;
#X connect 32 0 33 1;
#X connect 32 0 34 1;
#X connect 33 0 29 0;
#X connect 34 0 30 0;
#X connect 35 0 41 1;
#X connect 36 0 42 1;
#X connect 37 0 43 1;
#X connect 38 0 32 0;
#X connect 39 0 35 1;
#X connect 39 0 36 1;
#X connect 39 0 37 1;
#X connect 40 0 39 0;
#X connect 41 0 4 0;
#X connect 42 0 5 0;
#X connect 43 0 6 0;
#X connect 44 0 48 0;
#X connect 44 0 40 0;
#X connect 44 1 47 0;
#X connect 44 1 40 0;
#X connect 44 2 49 0;
#X connect 44 2 50 0;
#X connect 44 3 45 0;
#X connect 44 3 40 0;
#X connect 44 4 46 0;
#X connect 44 4 40 0;
#X connect 45 0 38 0;
#X connect 46 0 38 0;
#X connect 47 0 38 0;
#X connect 48 0 38 0;
#X connect 49 0 38 0;
#X connect 50 0 39 0;
#X connect 51 0 52 0;
#X connect 52 0 40 0;
#X restore 19 113 pd button1;
#X obj 390 317 s basetempo;
#X obj 503 307 s hitdecaymax;
#X msg 496 270 8000;
#N canvas 0 0 1472 893 strum 0;
#X obj 422 470 inlet;
#X obj 494 471 inlet;
#X obj 570 467 inlet;
#X obj 414 587 osc~;
#X obj 495 589 osc~;
#X obj 561 587 osc~;
#N canvas 0 0 1472 893 enveloping 0;
#X obj 595 371 vline~;
#X obj 674 430 pow~;
#X msg 753 357 20;
#X obj 765 321 loadbang;
#X obj 518 235 inlet;
#X obj 594 230 inlet;
#X obj 707 400 sig~;
#X obj 851 375 inlet;
#X obj 686 489 outlet~;
#X text 727 118 Inlets: 1 - Execute envelope (bang) 2 - Attack and
Decay pair 3 - log magnitude;
#X obj 591 261 unpack 0 0;
#X obj 582 293 pack 0 0 0;
#X msg 590 327 \$1 \$2 \, 0 \$3 \$2;
#X connect 0 0 1 0;
#X connect 1 0 8 0;
#X connect 2 0 6 0;
#X connect 3 0 2 0;
#X connect 4 0 11 0;
#X connect 5 0 10 0;
#X connect 6 0 1 1;
#X connect 7 0 6 0;
#X connect 10 0 11 1;
#X connect 10 1 11 2;
#X connect 11 0 12 0;
#X connect 12 0 0 0;
#X restore 320 626 pd enveloping;
#N canvas 0 0 1500 917 enveloping 0;
#X obj 595 371 vline~;
#X obj 674 430 pow~;
#X msg 753 357 20;
#X obj 765 321 loadbang;
#X obj 518 235 inlet;
#X obj 594 230 inlet;
#X obj 707 400 sig~;
#X obj 851 375 inlet;
#X obj 686 489 outlet~;
#X text 727 118 Inlets: 1 - Execute envelope (bang) 2 - Attack and
Decay pair 3 - log magnitude;
#X obj 591 261 unpack 0 0;
#X obj 582 293 pack 0 0 0;
#X msg 590 327 \$1 \$2 \, 0 \$3 \$2;
#X connect 0 0 1 0;
#X connect 1 0 8 0;
#X connect 2 0 6 0;
#X connect 3 0 2 0;
#X connect 4 0 11 0;
#X connect 5 0 10 0;
#X connect 6 0 1 1;
#X connect 7 0 6 0;
#X connect 10 0 11 1;
#X connect 10 1 11 2;
#X connect 11 0 12 0;
#X connect 12 0 0 0;
#X restore 437 629 pd enveloping;
#N canvas 0 0 1500 917 enveloping 0;
#X obj 595 371 vline~;
#X obj 674 430 pow~;
#X msg 753 357 20;
#X obj 765 321 loadbang;
#X obj 518 235 inlet;
#X obj 594 230 inlet;
#X obj 707 400 sig~;
#X obj 851 375 inlet;
#X obj 686 489 outlet~;
#X text 727 118 Inlets: 1 - Execute envelope (bang) 2 - Attack and
Decay pair 3 - log magnitude;
#X obj 591 261 unpack 0 0;
#X obj 582 293 pack 0 0 0;
#X msg 590 327 \$1 \$2 \, 0 \$3 \$2;
#X connect 0 0 1 0;
#X connect 1 0 8 0;
#X connect 2 0 6 0;
#X connect 3 0 2 0;
#X connect 4 0 11 0;
#X connect 5 0 10 0;
#X connect 6 0 1 1;
#X connect 7 0 6 0;
#X connect 10 0 11 1;
#X connect 10 1 11 2;
#X connect 11 0 12 0;
#X connect 12 0 0 0;
#X restore 555 632 pd enveloping;
#X obj 360 677 *~;
#X obj 424 681 *~;
#X obj 503 677 *~;
#X obj 419 504 +;
#X obj 414 531 mtof;
#X obj 492 503 +;
#X obj 487 530 mtof;
#X obj 569 504 +;
#X obj 564 531 mtof;
#X obj 216 478 loadbang;
#X msg 263 508 10;
#X obj 293 737 outlet~;
#X msg 203 509 5 4000;
#X obj 414 561 sig~;
#X obj 492 561 sig~;
#X obj 560 559 sig~;
#X obj 263 202 bng 15 250 50 0 empty empty empty 17 7 0 10 -262144
-1 -1;
#X obj 249 300 bng 15 250 50 0 empty empty empty 17 7 0 10 -262144
-1 -1;
#X obj 280 300 bng 15 250 50 0 empty empty empty 17 7 0 10 -262144
-1 -1;
#X obj 311 302 bng 15 250 50 0 empty empty empty 17 7 0 10 -262144
-1 -1;
#X obj 342 302 bng 15 250 50 0 empty empty empty 17 7 0 10 -262144
-1 -1;
#X obj 372 302 bng 15 250 50 0 empty empty empty 17 7 0 10 -262144
-1 -1;
#X obj 403 302 bng 15 250 50 0 empty empty empty 17 7 0 10 -262144
-1 -1;
#X obj 434 304 bng 15 250 50 0 empty empty empty 17 7 0 10 -262144
-1 -1;
#X obj 465 304 bng 15 250 50 0 empty empty empty 17 7 0 10 -262144
-1 -1;
#N canvas 0 0 450 300 strumsub 0;
#X obj 91 28 inlet;
#X obj 91 63 t b b;
#X obj 33 269 outlet;
#X obj 107 268 outlet;
#X obj 168 267 outlet;
#X obj 242 266 outlet;
#X obj 296 265 outlet;
#X obj 370 264 outlet;
#X obj 431 263 outlet;
#X obj 505 262 outlet;
#X msg 287 122 0;
#X obj 282 175 sel 0 1 2 3 4 5 6 7;
#X obj 31 106 bang;
#X obj 40 34 bng 15 250 50 0 empty empty empty 17 7 0 10 -262144 -1
-1;
#X floatatom 296 79 5 0 0 0 - - -, f 5;
#X obj 226 146 delay 500;
#X obj 215 190 f;
#X obj 93 214 t b f;
#X obj 93 134 counter 0 8;
#X obj 114 158 sel 8;
#X obj 214 60 random 125;
#X obj 216 98 + 25;
#X connect 0 0 1 0;
#X connect 1 0 18 0;
#X connect 1 1 10 0;
#X connect 10 0 11 0;
#X connect 11 0 2 0;
#X connect 11 1 3 0;
#X connect 11 2 4 0;
#X connect 11 3 5 0;
#X connect 11 4 6 0;
#X connect 11 5 7 0;
#X connect 11 6 8 0;
#X connect 11 7 9 0;
#X connect 12 0 18 0;
#X connect 13 0 1 0;
#X connect 15 0 12 0;
#X connect 15 0 16 0;
#X connect 16 0 11 0;
#X connect 17 0 20 0;
#X connect 17 1 16 1;
#X connect 18 0 19 0;
#X connect 19 1 17 0;
#X connect 20 0 21 0;
#X connect 21 0 14 0;
#X connect 21 0 15 0;
#X restore 251 249 pd strumsub;
#X obj 270 153 inlet;
#X obj 777 477 inlet;
#X obj 849 478 inlet;
#X obj 925 474 inlet;
#X obj 769 594 osc~;
#X obj 850 596 osc~;
#X obj 916 594 osc~;
#N canvas 0 0 1472 893 enveloping 0;
#X obj 595 371 vline~;
#X obj 674 430 pow~;
#X msg 753 357 20;
#X obj 765 321 loadbang;
#X obj 518 235 inlet;
#X obj 594 230 inlet;
#X obj 707 400 sig~;
#X obj 851 375 inlet;
#X obj 686 489 outlet~;
#X text 727 118 Inlets: 1 - Execute envelope (bang) 2 - Attack and
Decay pair 3 - log magnitude;
#X obj 591 261 unpack 0 0;
#X obj 582 293 pack 0 0 0;
#X msg 590 327 \$1 \$2 \, 0 \$3 \$2;
#X connect 0 0 1 0;
#X connect 1 0 8 0;
#X connect 2 0 6 0;
#X connect 3 0 2 0;
#X connect 4 0 11 0;
#X connect 5 0 10 0;
#X connect 6 0 1 1;
#X connect 7 0 6 0;
#X connect 10 0 11 1;
#X connect 10 1 11 2;
#X connect 11 0 12 0;
#X connect 12 0 0 0;
#X restore 675 633 pd enveloping;
#N canvas 0 0 1500 917 enveloping 0;
#X obj 595 371 vline~;
#X obj 674 430 pow~;
#X msg 753 357 20;
#X obj 765 321 loadbang;
#X obj 518 235 inlet;
#X obj 594 230 inlet;
#X obj 707 400 sig~;
#X obj 851 375 inlet;
#X obj 686 489 outlet~;
#X text 727 118 Inlets: 1 - Execute envelope (bang) 2 - Attack and
Decay pair 3 - log magnitude;
#X obj 591 261 unpack 0 0;
#X obj 582 293 pack 0 0 0;
#X msg 590 327 \$1 \$2 \, 0 \$3 \$2;
#X connect 0 0 1 0;
#X connect 1 0 8 0;
#X connect 2 0 6 0;
#X connect 3 0 2 0;
#X connect 4 0 11 0;
#X connect 5 0 10 0;
#X connect 6 0 1 1;
#X connect 7 0 6 0;
#X connect 10 0 11 1;
#X connect 10 1 11 2;
#X connect 11 0 12 0;
#X connect 12 0 0 0;
#X restore 792 636 pd enveloping;
#N canvas 0 0 1500 917 enveloping 0;
#X obj 595 371 vline~;
#X obj 674 430 pow~;
#X msg 753 357 20;
#X obj 765 321 loadbang;
#X obj 518 235 inlet;
#X obj 594 230 inlet;
#X obj 707 400 sig~;
#X obj 851 375 inlet;
#X obj 686 489 outlet~;
#X text 727 118 Inlets: 1 - Execute envelope (bang) 2 - Attack and
Decay pair 3 - log magnitude;
#X obj 591 261 unpack 0 0;
#X obj 582 293 pack 0 0 0;
#X msg 590 327 \$1 \$2 \, 0 \$3 \$2;
#X connect 0 0 1 0;
#X connect 1 0 8 0;
#X connect 2 0 6 0;
#X connect 3 0 2 0;
#X connect 4 0 11 0;
#X connect 5 0 10 0;
#X connect 6 0 1 1;
#X connect 7 0 6 0;
#X connect 10 0 11 1;
#X connect 10 1 11 2;
#X connect 11 0 12 0;
#X connect 12 0 0 0;
#X restore 910 639 pd enveloping;
#X obj 715 684 *~;
#X obj 779 688 *~;
#X obj 858 684 *~;
#X obj 774 511 +;
#X obj 769 538 mtof;
#X obj 847 510 +;
#X obj 842 537 mtof;
#X obj 924 511 +;
#X obj 919 538 mtof;
#X obj 769 568 sig~;
#X obj 847 568 sig~;
#X obj 915 566 sig~;
#X obj 1112 483 inlet;
#X obj 1184 484 inlet;
#X obj 1104 600 osc~;
#X obj 1185 602 osc~;
#N canvas 0 0 1472 893 enveloping 0;
#X obj 595 371 vline~;
#X obj 674 430 pow~;
#X msg 753 357 20;
#X obj 765 321 loadbang;
#X obj 518 235 inlet;
#X obj 594 230 inlet;
#X obj 707 400 sig~;
#X obj 851 375 inlet;
#X obj 686 489 outlet~;
#X text 727 118 Inlets: 1 - Execute envelope (bang) 2 - Attack and
Decay pair 3 - log magnitude;
#X obj 591 261 unpack 0 0;
#X obj 582 293 pack 0 0 0;
#X msg 590 327 \$1 \$2 \, 0 \$3 \$2;
#X connect 0 0 1 0;
#X connect 1 0 8 0;
#X connect 2 0 6 0;
#X connect 3 0 2 0;
#X connect 4 0 11 0;
#X connect 5 0 10 0;
#X connect 6 0 1 1;
#X connect 7 0 6 0;
#X connect 10 0 11 1;
#X connect 10 1 11 2;
#X connect 11 0 12 0;
#X connect 12 0 0 0;
#X restore 1010 639 pd enveloping;
#N canvas 0 0 1500 917 enveloping 0;
#X obj 595 371 vline~;
#X obj 674 430 pow~;
#X msg 753 357 20;
#X obj 765 321 loadbang;
#X obj 518 235 inlet;
#X obj 594 230 inlet;
#X obj 707 400 sig~;
#X obj 851 375 inlet;
#X obj 686 489 outlet~;
#X text 727 118 Inlets: 1 - Execute envelope (bang) 2 - Attack and
Decay pair 3 - log magnitude;
#X obj 591 261 unpack 0 0;
#X obj 582 293 pack 0 0 0;
#X msg 590 327 \$1 \$2 \, 0 \$3 \$2;
#X connect 0 0 1 0;
#X connect 1 0 8 0;
#X connect 2 0 6 0;
#X connect 3 0 2 0;
#X connect 4 0 11 0;
#X connect 5 0 10 0;
#X connect 6 0 1 1;
#X connect 7 0 6 0;
#X connect 10 0 11 1;
#X connect 10 1 11 2;
#X connect 11 0 12 0;
#X connect 12 0 0 0;
#X restore 1127 642 pd enveloping;
#X obj 1050 690 *~;
#X obj 1114 694 *~;
#X obj 1109 517 +;
#X obj 1104 544 mtof;
#X obj 1182 516 +;
#X obj 1177 543 mtof;
#X obj 1104 574 sig~;
#X obj 1182 574 sig~;
#X msg 242 334 1;
#X msg 278 334 1;
#X msg 319 332 1;
#X msg 355 332 1;
#X msg 396 333 1;
#X msg 432 333 1;
#X msg 473 331 1;
#X msg 509 331 1;
#X connect 0 0 12 0;
#X connect 1 0 14 0;
#X connect 2 0 16 0;
#X connect 3 0 9 0;
#X connect 4 0 10 0;
#X connect 5 0 11 0;
#X connect 6 0 9 1;
#X connect 7 0 10 1;
#X connect 8 0 11 1;
#X connect 9 0 20 0;
#X connect 10 0 20 0;
#X connect 11 0 20 0;
#X connect 12 0 13 0;
#X connect 13 0 22 0;
#X connect 14 0 15 0;
#X connect 15 0 23 0;
#X connect 16 0 17 0;
#X connect 17 0 24 0;
#X connect 18 0 21 0;
#X connect 18 0 19 0;
#X connect 19 0 6 2;
#X connect 19 0 7 2;
#X connect 19 0 8 2;
#X connect 19 0 42 2;
#X connect 19 0 43 2;
#X connect 19 0 44 2;
#X connect 19 0 61 2;
#X connect 19 0 62 2;
#X connect 21 0 6 1;
#X connect 21 0 7 1;
#X connect 21 0 8 1;
#X connect 21 0 42 1;
#X connect 21 0 43 1;
#X connect 21 0 44 1;
#X connect 21 0 61 1;
#X connect 21 0 62 1;
#X connect 22 0 3 0;
#X connect 23 0 4 0;
#X connect 24 0 5 0;
#X connect 25 0 34 0;
#X connect 26 0 71 0;
#X connect 27 0 72 0;
#X connect 28 0 73 0;
#X connect 29 0 74 0;
#X connect 30 0 75 0;
#X connect 31 0 76 0;
#X connect 32 0 77 0;
#X connect 33 0 78 0;
#X connect 34 0 26 0;
#X connect 34 1 27 0;
#X connect 34 2 28 0;
#X connect 34 3 29 0;
#X connect 34 4 30 0;
#X connect 34 5 31 0;
#X connect 34 6 32 0;
#X connect 34 7 33 0;
#X connect 35 0 25 0;
#X connect 36 0 48 0;
#X connect 37 0 50 0;
#X connect 38 0 52 0;
#X connect 39 0 45 0;
#X connect 40 0 46 0;
#X connect 41 0 47 0;
#X connect 42 0 45 1;
#X connect 43 0 46 1;
#X connect 44 0 47 1;
#X connect 45 0 20 0;
#X connect 46 0 20 0;
#X connect 47 0 20 0;
#X connect 48 0 49 0;
#X connect 49 0 54 0;
#X connect 50 0 51 0;
#X connect 51 0 55 0;
#X connect 52 0 53 0;
#X connect 53 0 56 0;
#X connect 54 0 39 0;
#X connect 55 0 40 0;
#X connect 56 0 41 0;
#X connect 57 0 65 0;
#X connect 58 0 67 0;
#X connect 59 0 63 0;
#X connect 60 0 64 0;
#X connect 61 0 63 1;
#X connect 62 0 64 1;
#X connect 63 0 20 0;
#X connect 64 0 20 0;
#X connect 65 0 66 0;
#X connect 66 0 69 0;
#X connect 67 0 68 0;
#X connect 68 0 70 0;
#X connect 69 0 59 0;
#X connect 70 0 60 0;
#X connect 71 0 6 0;
#X connect 72 0 7 0;
#X connect 73 0 8 0;
#X connect 74 0 42 0;
#X connect 75 0 43 0;
#X connect 76 0 44 0;
#X connect 77 0 61 0;
#X connect 78 0 62 0;
#X restore 397 670 pd strum;
#X obj 707 228 t b f;
#X msg 375 860 48 55 60 67 72 76 79 84;
#X obj 367 217 loadbang;
#N canvas 369 0 733 893 button2 0;
#X obj 463 344 inlet;
#X obj 535 345 inlet;
#X obj 611 341 inlet;
#X obj 313 392 inlet;
#X obj 455 461 osc~;
#X obj 536 463 osc~;
#X obj 602 461 osc~;
#N canvas 0 0 1472 893 enveloping 0;
#X obj 595 371 vline~;
#X obj 674 430 pow~;
#X msg 753 357 20;
#X obj 765 321 loadbang;
#X obj 518 235 inlet;
#X obj 594 230 inlet;
#X obj 707 400 sig~;
#X obj 851 375 inlet;
#X obj 686 489 outlet~;
#X text 727 118 Inlets: 1 - Execute envelope (bang) 2 - Attack and
Decay pair 3 - log magnitude;
#X obj 591 261 unpack 0 0;
#X obj 582 293 pack 0 0 0;
#X msg 590 327 \$1 \$2 \, 0 \$3 \$2;
#X connect 0 0 1 0;
#X connect 1 0 8 0;
#X connect 2 0 6 0;
#X connect 3 0 2 0;
#X connect 4 0 11 0;
#X connect 5 0 10 0;
#X connect 6 0 1 1;
#X connect 7 0 6 0;
#X connect 10 0 11 1;
#X connect 10 1 11 2;
#X connect 11 0 12 0;
#X connect 12 0 0 0;
#X restore 361 500 pd enveloping;
#N canvas 0 0 1500 917 enveloping 0;
#X obj 595 371 vline~;
#X obj 674 430 pow~;
#X msg 753 357 20;
#X obj 765 321 loadbang;
#X obj 518 235 inlet;
#X obj 594 230 inlet;
#X obj 707 400 sig~;
#X obj 851 375 inlet;
#X obj 686 489 outlet~;
#X text 727 118 Inlets: 1 - Execute envelope (bang) 2 - Attack and
Decay pair 3 - log magnitude;
#X obj 591 261 unpack 0 0;
#X obj 582 293 pack 0 0 0;
#X msg 590 327 \$1 \$2 \, 0 \$3 \$2;
#X connect 0 0 1 0;
#X connect 1 0 8 0;
#X connect 2 0 6 0;
#X connect 3 0 2 0;
#X connect 4 0 11 0;
#X connect 5 0 10 0;
#X connect 6 0 1 1;
#X connect 7 0 6 0;
#X connect 10 0 11 1;
#X connect 10 1 11 2;
#X connect 11 0 12 0;
#X connect 12 0 0 0;
#X restore 478 503 pd enveloping;
#N canvas 0 0 1500 917 enveloping 0;
#X obj 595 371 vline~;
#X obj 674 430 pow~;
#X msg 753 357 20;
#X obj 765 321 loadbang;
#X obj 518 235 inlet;
#X obj 594 230 inlet;
#X obj 707 400 sig~;
#X obj 851 375 inlet;
#X obj 686 489 outlet~;
#X text 727 118 Inlets: 1 - Execute envelope (bang) 2 - Attack and
Decay pair 3 - log magnitude;
#X obj 591 261 unpack 0 0;
#X obj 582 293 pack 0 0 0;
#X msg 590 327 \$1 \$2 \, 0 \$3 \$2;
#X connect 0 0 1 0;
#X connect 1 0 8 0;
#X connect 2 0 6 0;
#X connect 3 0 2 0;
#X connect 4 0 11 0;
#X connect 5 0 10 0;
#X connect 6 0 1 1;
#X connect 7 0 6 0;
#X connect 10 0 11 1;
#X connect 10 1 11 2;
#X connect 11 0 12 0;
#X connect 12 0 0 0;
#X restore 596 506 pd enveloping;
#X obj 401 551 *~;
#X obj 465 555 *~;
#X obj 544 551 *~;
#X obj 460 378 +;
#X obj 455 405 mtof;
#X obj 533 377 +;
#X obj 528 404 mtof;
#X obj 610 378 +;
#X obj 605 405 mtof;
#X obj 283 449 loadbang;
#X msg 330 479 10;
#X obj 334 611 outlet~;
#N canvas 511 296 450 300 cycler 0;
#X obj 150 43 inlet;
#X msg 219 175 1;
#X msg 265 175 2;
#X msg 306 173 3;
#X obj 236 133 sel 0 1 2;
#X obj 232 99 random 3;
#X obj 49 151 r basetempo;
#X obj 89 204 pack 0 0;
#X msg 87 227 \$2 \$1;
#X obj 88 253 unpack 0 0;
#X obj 221 271 /;
#X obj 267 251 metro;
#X obj 141 81 t b b b;
#X obj 360 125 timer;
#X obj 271 37 bng 15 250 50 0 empty empty empty 17 7 0 10 -262144 -1
-1;
#X obj 41 173 expr 60000 / $f1;
#X obj 351 40 r hitdecaymax;
#X obj 377 196 /;
#X floatatom 347 248 5 0 0 0 - - -, f 5;
#X obj 370 161 expr $f2 - $f1;
#X obj 414 290 clip 0 1;
#X obj 351 335 sel 0;
#X floatatom 496 491 5 0 0 0 - - -, f 5;
#X obj 515 437 counter 0 2;
#X obj 369 396 t b f;
#X obj 274 434 pack 0 1;
#X obj 166 466 route 0 1 2;
#X obj 113 496 outlet;
#X obj 170 506 outlet;
#X obj 247 503 outlet;
#X msg 509 379 set 0;
#X connect 0 0 12 0;
#X connect 1 0 7 0;
#X connect 2 0 7 0;
#X connect 3 0 7 0;
#X connect 4 0 1 0;
#X connect 4 1 2 0;
#X connect 4 2 3 0;
#X connect 5 0 4 0;
#X connect 6 0 15 0;
#X connect 7 0 8 0;
#X connect 8 0 9 0;
#X connect 9 0 10 0;
#X connect 9 1 10 1;
#X connect 10 0 11 1;
#X connect 11 0 13 1;
#X connect 12 0 11 0;
#X connect 12 1 5 0;
#X connect 12 2 13 0;
#X connect 13 0 19 0;
#X connect 14 0 12 0;
#X connect 15 0 7 1;
#X connect 16 0 17 1;
#X connect 16 0 19 1;
#X connect 17 0 18 0;
#X connect 17 0 20 0;
#X connect 19 0 17 0;
#X connect 20 0 21 0;
#X connect 21 1 24 0;
#X connect 23 0 22 0;
#X connect 23 0 25 0;
#X connect 24 0 23 0;
#X connect 24 1 25 1;
#X connect 25 0 26 0;
#X connect 26 0 27 0;
#X connect 26 1 28 0;
#X connect 26 2 29 0;
#X connect 30 0 23 0;
#X restore 376 368 pd cycler;
#X msg 270 480 5 4000;
#X obj 312 415 t b f;
#X obj 455 435 sig~;
#X obj 533 435 sig~;
#X obj 601 433 sig~;
#X obj 703 440 osc~;
#X obj 759 440 osc~;
#X obj 811 449 osc~;
#X obj 696 401 *~;
#X obj 861 404 line~;
#X obj 753 398 *~;
#X obj 810 402 *~;
#X obj 704 476 *~;
#X obj 755 473 *~;
#X obj 810 482 *~;
#X msg 858 377 \$1 5;
#X obj 897 456 sig~;
#X msg 897 430 500;
#X obj 697 522 +~;
#X obj 752 524 +~;
#X obj 807 524 +~;
#X obj 694 133 select -2 -1 0 1 2;
#X msg 981 357 3.03;
#X msg 1034 358 7.07;
#X msg 889 351 0.95;
#X msg 844 349 0.45;
#X msg 935 354 0;
#X msg 943 432 0;
#X obj 982 402 r depth;
#X msg 912 398 set \$1;
#X connect 0 0 13 0;
#X connect 1 0 15 0;
#X connect 2 0 17 0;
#X connect 3 0 24 0;
#X connect 4 0 10 0;
#X connect 5 0 11 0;
#X connect 6 0 12 0;
#X connect 7 0 10 1;
#X connect 8 0 11 1;
#X connect 9 0 12 1;
#X connect 10 0 21 0;
#X connect 11 0 21 0;
#X connect 12 0 21 0;
#X connect 13 0 14 0;
#X connect 14 0 25 0;
#X connect 15 0 16 0;
#X connect 16 0 26 0;
#X connect 17 0 18 0;
#X connect 18 0 27 0;
#X connect 19 0 23 0;
#X connect 19 0 20 0;
#X connect 20 0 7 2;
#X connect 20 0 8 2;
#X connect 20 0 9 2;
#X connect 22 0 7 0;
#X connect 22 1 8 0;
#X connect 22 2 9 0;
#X connect 23 0 7 1;
#X connect 23 0 8 1;
#X connect 23 0 9 1;
#X connect 24 0 22 0;
#X connect 24 1 44 0;
#X connect 25 0 31 0;
#X connect 25 0 41 0;
#X connect 26 0 33 0;
#X connect 26 0 42 0;
#X connect 27 0 34 0;
#X connect 27 0 43 0;
#X connect 28 0 35 0;
#X connect 29 0 36 0;
#X connect 30 0 37 0;
#X connect 31 0 28 0;
#X connect 32 0 31 1;
#X connect 32 0 33 1;
#X connect 32 0 34 1;
#X connect 33 0 29 0;
#X connect 34 0 30 0;
#X connect 35 0 41 1;
#X connect 36 0 42 1;
#X connect 37 0 43 1;
#X connect 38 0 32 0;
#X connect 39 0 35 1;
#X connect 39 0 36 1;
#X connect 39 0 37 1;
#X connect 40 0 39 0;
#X connect 41 0 4 0;
#X connect 42 0 5 0;
#X connect 43 0 6 0;
#X connect 44 0 48 0;
#X connect 44 0 40 0;
#X connect 44 1 47 0;
#X connect 44 1 40 0;
#X connect 44 2 49 0;
#X connect 44 2 50 0;
#X connect 44 3 45 0;
#X connect 44 3 40 0;
#X connect 44 4 46 0;
#X connect 44 4 40 0;
#X connect 45 0 38 0;
#X connect 46 0 38 0;
#X connect 47 0 38 0;
#X connect 48 0 38 0;
#X connect 49 0 38 0;
#X connect 50 0 39 0;
#X connect 51 0 52 0;
#X connect 52 0 40 0;
#X restore 111 111 pd button2;
#N canvas 369 0 733 893 button3 0;
#X obj 463 344 inlet;
#X obj 535 345 inlet;
#X obj 611 341 inlet;
#X obj 313 392 inlet;
#X obj 455 461 osc~;
#X obj 536 463 osc~;
#X obj 602 461 osc~;
#N canvas 0 0 1472 893 enveloping 0;
#X obj 595 371 vline~;
#X obj 674 430 pow~;
#X msg 753 357 20;
#X obj 765 321 loadbang;
#X obj 518 235 inlet;
#X obj 594 230 inlet;
#X obj 707 400 sig~;
#X obj 851 375 inlet;
#X obj 686 489 outlet~;
#X text 727 118 Inlets: 1 - Execute envelope (bang) 2 - Attack and
Decay pair 3 - log magnitude;
#X obj 591 261 unpack 0 0;
#X obj 582 293 pack 0 0 0;
#X msg 590 327 \$1 \$2 \, 0 \$3 \$2;
#X connect 0 0 1 0;
#X connect 1 0 8 0;
#X connect 2 0 6 0;
#X connect 3 0 2 0;
#X connect 4 0 11 0;
#X connect 5 0 10 0;
#X connect 6 0 1 1;
#X connect 7 0 6 0;
#X connect 10 0 11 1;
#X connect 10 1 11 2;
#X connect 11 0 12 0;
#X connect 12 0 0 0;
#X restore 361 500 pd enveloping;
#N canvas 0 0 1500 917 enveloping 0;
#X obj 595 371 vline~;
#X obj 674 430 pow~;
#X msg 753 357 20;
#X obj 765 321 loadbang;
#X obj 518 235 inlet;
#X obj 594 230 inlet;
#X obj 707 400 sig~;
#X obj 851 375 inlet;
#X obj 686 489 outlet~;
#X text 727 118 Inlets: 1 - Execute envelope (bang) 2 - Attack and
Decay pair 3 - log magnitude;
#X obj 591 261 unpack 0 0;
#X obj 582 293 pack 0 0 0;
#X msg 590 327 \$1 \$2 \, 0 \$3 \$2;
#X connect 0 0 1 0;
#X connect 1 0 8 0;
#X connect 2 0 6 0;
#X connect 3 0 2 0;
#X connect 4 0 11 0;
#X connect 5 0 10 0;
#X connect 6 0 1 1;
#X connect 7 0 6 0;
#X connect 10 0 11 1;
#X connect 10 1 11 2;
#X connect 11 0 12 0;
#X connect 12 0 0 0;
#X restore 478 503 pd enveloping;
#N canvas 0 0 1500 917 enveloping 0;
#X obj 595 371 vline~;
#X obj 674 430 pow~;
#X msg 753 357 20;
#X obj 765 321 loadbang;
#X obj 518 235 inlet;
#X obj 594 230 inlet;
#X obj 707 400 sig~;
#X obj 851 375 inlet;
#X obj 686 489 outlet~;
#X text 727 118 Inlets: 1 - Execute envelope (bang) 2 - Attack and
Decay pair 3 - log magnitude;
#X obj 591 261 unpack 0 0;
#X obj 582 293 pack 0 0 0;
#X msg 590 327 \$1 \$2 \, 0 \$3 \$2;
#X connect 0 0 1 0;
#X connect 1 0 8 0;
#X connect 2 0 6 0;
#X connect 3 0 2 0;
#X connect 4 0 11 0;
#X connect 5 0 10 0;
#X connect 6 0 1 1;
#X connect 7 0 6 0;
#X connect 10 0 11 1;
#X connect 10 1 11 2;
#X connect 11 0 12 0;
#X connect 12 0 0 0;
#X restore 596 506 pd enveloping;
#X obj 401 551 *~;
#X obj 465 555 *~;
#X obj 544 551 *~;
#X obj 460 378 +;
#X obj 455 405 mtof;
#X obj 533 377 +;
#X obj 528 404 mtof;
#X obj 610 378 +;
#X obj 605 405 mtof;
#X obj 283 449 loadbang;
#X msg 330 479 10;
#X obj 334 611 outlet~;
#N canvas 511 296 450 300 cycler 0;
#X obj 150 43 inlet;
#X msg 219 175 1;
#X msg 265 175 2;
#X msg 306 173 3;
#X obj 236 133 sel 0 1 2;
#X obj 232 99 random 3;
#X obj 49 151 r basetempo;
#X obj 89 204 pack 0 0;
#X msg 87 227 \$2 \$1;
#X obj 88 253 unpack 0 0;
#X obj 221 271 /;
#X obj 267 251 metro;
#X obj 141 81 t b b b;
#X obj 360 125 timer;
#X obj 271 37 bng 15 250 50 0 empty empty empty 17 7 0 10 -262144 -1
-1;
#X obj 41 173 expr 60000 / $f1;
#X obj 351 40 r hitdecaymax;
#X obj 377 196 /;
#X floatatom 347 248 5 0 0 0 - - -, f 5;
#X obj 370 161 expr $f2 - $f1;
#X obj 414 290 clip 0 1;
#X obj 351 335 sel 0;
#X floatatom 496 491 5 0 0 0 - - -, f 5;
#X obj 515 437 counter 0 2;
#X obj 369 396 t b f;
#X obj 274 434 pack 0 1;
#X obj 166 466 route 0 1 2;
#X obj 113 496 outlet;
#X obj 170 506 outlet;
#X obj 247 503 outlet;
#X msg 509 379 set 0;
#X connect 0 0 12 0;
#X connect 1 0 7 0;
#X connect 2 0 7 0;
#X connect 3 0 7 0;
#X connect 4 0 1 0;
#X connect 4 1 2 0;
#X connect 4 2 3 0;
#X connect 5 0 4 0;
#X connect 6 0 15 0;
#X connect 7 0 8 0;
#X connect 8 0 9 0;
#X connect 9 0 10 0;
#X connect 9 1 10 1;
#X connect 10 0 11 1;
#X connect 11 0 13 1;
#X connect 12 0 11 0;
#X connect 12 1 5 0;
#X connect 12 2 13 0;
#X connect 13 0 19 0;
#X connect 14 0 12 0;
#X connect 15 0 7 1;
#X connect 16 0 17 1;
#X connect 16 0 19 1;
#X connect 17 0 18 0;
#X connect 17 0 20 0;
#X connect 19 0 17 0;
#X connect 20 0 21 0;
#X connect 21 1 24 0;
#X connect 23 0 22 0;
#X connect 23 0 25 0;
#X connect 24 0 23 0;
#X connect 24 1 25 1;
#X connect 25 0 26 0;
#X connect 26 0 27 0;
#X connect 26 1 28 0;
#X connect 26 2 29 0;
#X connect 30 0 23 0;
#X restore 376 368 pd cycler;
#X msg 270 480 5 4000;
#X obj 312 415 t b f;
#X obj 455 435 sig~;
#X obj 533 435 sig~;
#X obj 601 433 sig~;
#X obj 703 440 osc~;
#X obj 759 440 osc~;
#X obj 811 449 osc~;
#X obj 696 401 *~;
#X obj 861 404 line~;
#X obj 753 398 *~;
#X obj 810 402 *~;
#X obj 704 476 *~;
#X obj 755 473 *~;
#X obj 810 482 *~;
#X msg 858 377 \$1 5;
#X obj 897 456 sig~;
#X msg 897 430 500;
#X obj 697 522 +~;
#X obj 752 524 +~;
#X obj 807 524 +~;
#X obj 694 133 select -2 -1 0 1 2;
#X msg 981 357 3.03;
#X msg 1034 358 7.07;
#X msg 889 351 0.95;
#X msg 844 349 0.45;
#X msg 935 354 0;
#X msg 943 432 0;
#X obj 982 402 r depth;
#X msg 912 398 set \$1;
#X connect 0 0 13 0;
#X connect 1 0 15 0;
#X connect 2 0 17 0;
#X connect 3 0 24 0;
#X connect 4 0 10 0;
#X connect 5 0 11 0;
#X connect 6 0 12 0;
#X connect 7 0 10 1;
#X connect 8 0 11 1;
#X connect 9 0 12 1;
#X connect 10 0 21 0;
#X connect 11 0 21 0;
#X connect 12 0 21 0;
#X connect 13 0 14 0;
#X connect 14 0 25 0;
#X connect 15 0 16 0;
#X connect 16 0 26 0;
#X connect 17 0 18 0;
#X connect 18 0 27 0;
#X connect 19 0 23 0;
#X connect 19 0 20 0;
#X connect 20 0 7 2;
#X connect 20 0 8 2;
#X connect 20 0 9 2;
#X connect 22 0 7 0;
#X connect 22 1 8 0;
#X connect 22 2 9 0;
#X connect 23 0 7 1;
#X connect 23 0 8 1;
#X connect 23 0 9 1;
#X connect 24 0 22 0;
#X connect 24 1 44 0;
#X connect 25 0 31 0;
#X connect 25 0 41 0;
#X connect 26 0 33 0;
#X connect 26 0 42 0;
#X connect 27 0 34 0;
#X connect 27 0 43 0;
#X connect 28 0 35 0;
#X connect 29 0 36 0;
#X connect 30 0 37 0;
#X connect 31 0 28 0;
#X connect 32 0 31 1;
#X connect 32 0 33 1;
#X connect 32 0 34 1;
#X connect 33 0 29 0;
#X connect 34 0 30 0;
#X connect 35 0 41 1;
#X connect 36 0 42 1;
#X connect 37 0 43 1;
#X connect 38 0 32 0;
#X connect 39 0 35 1;
#X connect 39 0 36 1;
#X connect 39 0 37 1;
#X connect 40 0 39 0;
#X connect 41 0 4 0;
#X connect 42 0 5 0;
#X connect 43 0 6 0;
#X connect 44 0 48 0;
#X connect 44 0 40 0;
#X connect 44 1 47 0;
#X connect 44 1 40 0;
#X connect 44 2 49 0;
#X connect 44 2 50 0;
#X connect 44 3 45 0;
#X connect 44 3 40 0;
#X connect 44 4 46 0;
#X connect 44 4 40 0;
#X connect 45 0 38 0;
#X connect 46 0 38 0;
#X connect 47 0 38 0;
#X connect 48 0 38 0;
#X connect 49 0 38 0;
#X connect 50 0 39 0;
#X connect 51 0 52 0;
#X connect 52 0 40 0;
#X restore 197 109 pd button3;
#N canvas 369 0 733 893 button4 0;
#X obj 463 344 inlet;
#X obj 535 345 inlet;
#X obj 611 341 inlet;
#X obj 313 392 inlet;
#X obj 455 461 osc~;
#X obj 536 463 osc~;
#X obj 602 461 osc~;
#N canvas 0 0 1472 893 enveloping 0;
#X obj 595 371 vline~;
#X obj 674 430 pow~;
#X msg 753 357 20;
#X obj 765 321 loadbang;
#X obj 518 235 inlet;
#X obj 594 230 inlet;
#X obj 707 400 sig~;
#X obj 851 375 inlet;
#X obj 686 489 outlet~;
#X text 727 118 Inlets: 1 - Execute envelope (bang) 2 - Attack and
Decay pair 3 - log magnitude;
#X obj 591 261 unpack 0 0;
#X obj 582 293 pack 0 0 0;
#X msg 590 327 \$1 \$2 \, 0 \$3 \$2;
#X connect 0 0 1 0;
#X connect 1 0 8 0;
#X connect 2 0 6 0;
#X connect 3 0 2 0;
#X connect 4 0 11 0;
#X connect 5 0 10 0;
#X connect 6 0 1 1;
#X connect 7 0 6 0;
#X connect 10 0 11 1;
#X connect 10 1 11 2;
#X connect 11 0 12 0;
#X connect 12 0 0 0;
#X restore 361 500 pd enveloping;
#N canvas 0 0 1500 917 enveloping 0;
#X obj 595 371 vline~;
#X obj 674 430 pow~;
#X msg 753 357 20;
#X obj 765 321 loadbang;
#X obj 518 235 inlet;
#X obj 594 230 inlet;
#X obj 707 400 sig~;
#X obj 851 375 inlet;
#X obj 686 489 outlet~;
#X text 727 118 Inlets: 1 - Execute envelope (bang) 2 - Attack and
Decay pair 3 - log magnitude;
#X obj 591 261 unpack 0 0;
#X obj 582 293 pack 0 0 0;
#X msg 590 327 \$1 \$2 \, 0 \$3 \$2;
#X connect 0 0 1 0;
#X connect 1 0 8 0;
#X connect 2 0 6 0;
#X connect 3 0 2 0;
#X connect 4 0 11 0;
#X connect 5 0 10 0;
#X connect 6 0 1 1;
#X connect 7 0 6 0;
#X connect 10 0 11 1;
#X connect 10 1 11 2;
#X connect 11 0 12 0;
#X connect 12 0 0 0;
#X restore 478 503 pd enveloping;
#N canvas 0 0 1500 917 enveloping 0;
#X obj 595 371 vline~;
#X obj 674 430 pow~;
#X msg 753 357 20;
#X obj 765 321 loadbang;
#X obj 518 235 inlet;
#X obj 594 230 inlet;
#X obj 707 400 sig~;
#X obj 851 375 inlet;
#X obj 686 489 outlet~;
#X text 727 118 Inlets: 1 - Execute envelope (bang) 2 - Attack and
Decay pair 3 - log magnitude;
#X obj 591 261 unpack 0 0;
#X obj 582 293 pack 0 0 0;
#X msg 590 327 \$1 \$2 \, 0 \$3 \$2;
#X connect 0 0 1 0;
#X connect 1 0 8 0;
#X connect 2 0 6 0;
#X connect 3 0 2 0;
#X connect 4 0 11 0;
#X connect 5 0 10 0;
#X connect 6 0 1 1;
#X connect 7 0 6 0;
#X connect 10 0 11 1;
#X connect 10 1 11 2;
#X connect 11 0 12 0;
#X connect 12 0 0 0;
#X restore 596 506 pd enveloping;
#X obj 401 551 *~;
#X obj 465 555 *~;
#X obj 544 551 *~;
#X obj 460 378 +;
#X obj 455 405 mtof;
#X obj 533 377 +;
#X obj 528 404 mtof;
#X obj 610 378 +;
#X obj 605 405 mtof;
#X obj 283 449 loadbang;
#X msg 330 479 10;
#X obj 334 611 outlet~;
#N canvas 511 296 450 300 cycler 0;
#X obj 150 43 inlet;
#X msg 219 175 1;
#X msg 265 175 2;
#X msg 306 173 3;
#X obj 236 133 sel 0 1 2;
#X obj 232 99 random 3;
#X obj 49 151 r basetempo;
#X obj 89 204 pack 0 0;
#X msg 87 227 \$2 \$1;
#X obj 88 253 unpack 0 0;
#X obj 221 271 /;
#X obj 267 251 metro;
#X obj 141 81 t b b b;
#X obj 360 125 timer;
#X obj 271 37 bng 15 250 50 0 empty empty empty 17 7 0 10 -262144 -1
-1;
#X obj 41 173 expr 60000 / $f1;
#X obj 351 40 r hitdecaymax;
#X obj 377 196 /;
#X floatatom 347 248 5 0 0 0 - - -, f 5;
#X obj 370 161 expr $f2 - $f1;
#X obj 414 290 clip 0 1;
#X obj 351 335 sel 0;
#X floatatom 496 491 5 0 0 0 - - -, f 5;
#X obj 515 437 counter 0 2;
#X obj 369 396 t b f;
#X obj 274 434 pack 0 1;
#X obj 166 466 route 0 1 2;
#X obj 113 496 outlet;
#X obj 170 506 outlet;
#X obj 247 503 outlet;
#X msg 509 379 set 0;
#X connect 0 0 12 0;
#X connect 1 0 7 0;
#X connect 2 0 7 0;
#X connect 3 0 7 0;
#X connect 4 0 1 0;
#X connect 4 1 2 0;
#X connect 4 2 3 0;
#X connect 5 0 4 0;
#X connect 6 0 15 0;
#X connect 7 0 8 0;
#X connect 8 0 9 0;
#X connect 9 0 10 0;
#X connect 9 1 10 1;
#X connect 10 0 11 1;
#X connect 11 0 13 1;
#X connect 12 0 11 0;
#X connect 12 1 5 0;
#X connect 12 2 13 0;
#X connect 13 0 19 0;
#X connect 14 0 12 0;
#X connect 15 0 7 1;
#X connect 16 0 17 1;
#X connect 16 0 19 1;
#X connect 17 0 18 0;
#X connect 17 0 20 0;
#X connect 19 0 17 0;
#X connect 20 0 21 0;
#X connect 21 1 24 0;
#X connect 23 0 22 0;
#X connect 23 0 25 0;
#X connect 24 0 23 0;
#X connect 24 1 25 1;
#X connect 25 0 26 0;
#X connect 26 0 27 0;
#X connect 26 1 28 0;
#X connect 26 2 29 0;
#X connect 30 0 23 0;
#X restore 376 368 pd cycler;
#X msg 270 480 5 4000;
#X obj 312 415 t b f;
#X obj 455 435 sig~;
#X obj 533 435 sig~;
#X obj 601 433 sig~;
#X obj 703 440 osc~;
#X obj 759 440 osc~;
#X obj 811 449 osc~;
#X obj 696 401 *~;
#X obj 861 404 line~;
#X obj 753 398 *~;
#X obj 810 402 *~;
#X obj 704 476 *~;
#X obj 755 473 *~;
#X obj 810 482 *~;
#X msg 858 377 \$1 5;
#X obj 897 456 sig~;
#X msg 897 430 500;
#X obj 697 522 +~;
#X obj 752 524 +~;
#X obj 807 524 +~;
#X obj 694 133 select -2 -1 0 1 2;
#X msg 981 357 3.03;
#X msg 1034 358 7.07;
#X msg 889 351 0.95;
#X msg 844 349 0.45;
#X msg 935 354 0;
#X msg 943 432 0;
#X obj 982 402 r depth;
#X msg 912 398 set \$1;
#X connect 0 0 13 0;
#X connect 1 0 15 0;
#X connect 2 0 17 0;
#X connect 3 0 24 0;
#X connect 4 0 10 0;
#X connect 5 0 11 0;
#X connect 6 0 12 0;
#X connect 7 0 10 1;
#X connect 8 0 11 1;
#X connect 9 0 12 1;
#X connect 10 0 21 0;
#X connect 11 0 21 0;
#X connect 12 0 21 0;
#X connect 13 0 14 0;
#X connect 14 0 25 0;
#X connect 15 0 16 0;
#X connect 16 0 26 0;
#X connect 17 0 18 0;
#X connect 18 0 27 0;
#X connect 19 0 23 0;
#X connect 19 0 20 0;
#X connect 20 0 7 2;
#X connect 20 0 8 2;
#X connect 20 0 9 2;
#X connect 22 0 7 0;
#X connect 22 1 8 0;
#X connect 22 2 9 0;
#X connect 23 0 7 1;
#X connect 23 0 8 1;
#X connect 23 0 9 1;
#X connect 24 0 22 0;
#X connect 24 1 44 0;
#X connect 25 0 31 0;
#X connect 25 0 41 0;
#X connect 26 0 33 0;
#X connect 26 0 42 0;
#X connect 27 0 34 0;
#X connect 27 0 43 0;
#X connect 28 0 35 0;
#X connect 29 0 36 0;
#X connect 30 0 37 0;
#X connect 31 0 28 0;
#X connect 32 0 31 1;
#X connect 32 0 33 1;
#X connect 32 0 34 1;
#X connect 33 0 29 0;
#X connect 34 0 30 0;
#X connect 35 0 41 1;
#X connect 36 0 42 1;
#X connect 37 0 43 1;
#X connect 38 0 32 0;
#X connect 39 0 35 1;
#X connect 39 0 36 1;
#X connect 39 0 37 1;
#X connect 40 0 39 0;
#X connect 41 0 4 0;
#X connect 42 0 5 0;
#X connect 43 0 6 0;
#X connect 44 0 48 0;
#X connect 44 0 40 0;
#X connect 44 1 47 0;
#X connect 44 1 40 0;
#X connect 44 2 49 0;
#X connect 44 2 50 0;
#X connect 44 3 45 0;
#X connect 44 3 40 0;
#X connect 44 4 46 0;
#X connect 44 4 40 0;
#X connect 45 0 38 0;
#X connect 46 0 38 0;
#X connect 47 0 38 0;
#X connect 48 0 38 0;
#X connect 49 0 38 0;
#X connect 50 0 39 0;
#X connect 51 0 52 0;
#X connect 52 0 40 0;
#X restore 289 107 pd button4;
#N canvas 369 0 733 893 button5 0;
#X obj 463 344 inlet;
#X obj 535 345 inlet;
#X obj 611 341 inlet;
#X obj 313 392 inlet;
#X obj 455 461 osc~;
#X obj 536 463 osc~;
#X obj 602 461 osc~;
#N canvas 0 0 1472 893 enveloping 0;
#X obj 595 371 vline~;
#X obj 674 430 pow~;
#X msg 753 357 20;
#X obj 765 321 loadbang;
#X obj 518 235 inlet;
#X obj 594 230 inlet;
#X obj 707 400 sig~;
#X obj 851 375 inlet;
#X obj 686 489 outlet~;
#X text 727 118 Inlets: 1 - Execute envelope (bang) 2 - Attack and
Decay pair 3 - log magnitude;
#X obj 591 261 unpack 0 0;
#X obj 582 293 pack 0 0 0;
#X msg 590 327 \$1 \$2 \, 0 \$3 \$2;
#X connect 0 0 1 0;
#X connect 1 0 8 0;
#X connect 2 0 6 0;
#X connect 3 0 2 0;
#X connect 4 0 11 0;
#X connect 5 0 10 0;
#X connect 6 0 1 1;
#X connect 7 0 6 0;
#X connect 10 0 11 1;
#X connect 10 1 11 2;
#X connect 11 0 12 0;
#X connect 12 0 0 0;
#X restore 361 500 pd enveloping;
#N canvas 0 0 1500 917 enveloping 0;
#X obj 595 371 vline~;
#X obj 674 430 pow~;
#X msg 753 357 20;
#X obj 765 321 loadbang;
#X obj 518 235 inlet;
#X obj 594 230 inlet;
#X obj 707 400 sig~;
#X obj 851 375 inlet;
#X obj 686 489 outlet~;
#X text 727 118 Inlets: 1 - Execute envelope (bang) 2 - Attack and
Decay pair 3 - log magnitude;
#X obj 591 261 unpack 0 0;
#X obj 582 293 pack 0 0 0;
#X msg 590 327 \$1 \$2 \, 0 \$3 \$2;
#X connect 0 0 1 0;
#X connect 1 0 8 0;
#X connect 2 0 6 0;
#X connect 3 0 2 0;
#X connect 4 0 11 0;
#X connect 5 0 10 0;
#X connect 6 0 1 1;
#X connect 7 0 6 0;
#X connect 10 0 11 1;
#X connect 10 1 11 2;
#X connect 11 0 12 0;
#X connect 12 0 0 0;
#X restore 478 503 pd enveloping;
#N canvas 0 0 1500 917 enveloping 0;
#X obj 595 371 vline~;
#X obj 674 430 pow~;
#X msg 753 357 20;
#X obj 765 321 loadbang;
#X obj 518 235 inlet;
#X obj 594 230 inlet;
#X obj 707 400 sig~;
#X obj 851 375 inlet;
#X obj 686 489 outlet~;
#X text 727 118 Inlets: 1 - Execute envelope (bang) 2 - Attack and
Decay pair 3 - log magnitude;
#X obj 591 261 unpack 0 0;
#X obj 582 293 pack 0 0 0;
#X msg 590 327 \$1 \$2 \, 0 \$3 \$2;
#X connect 0 0 1 0;
#X connect 1 0 8 0;
#X connect 2 0 6 0;
#X connect 3 0 2 0;
#X connect 4 0 11 0;
#X connect 5 0 10 0;
#X connect 6 0 1 1;
#X connect 7 0 6 0;
#X connect 10 0 11 1;
#X connect 10 1 11 2;
#X connect 11 0 12 0;
#X connect 12 0 0 0;
#X restore 596 506 pd enveloping;
#X obj 401 551 *~;
#X obj 465 555 *~;
#X obj 544 551 *~;
#X obj 460 378 +;
#X obj 455 405 mtof;
#X obj 533 377 +;
#X obj 528 404 mtof;
#X obj 610 378 +;
#X obj 605 405 mtof;
#X obj 283 449 loadbang;
#X msg 330 479 10;
#X obj 334 611 outlet~;
#N canvas 511 296 450 300 cycler 0;
#X obj 150 43 inlet;
#X msg 219 175 1;
#X msg 265 175 2;
#X msg 306 173 3;
#X obj 236 133 sel 0 1 2;
#X obj 232 99 random 3;
#X obj 49 151 r basetempo;
#X obj 89 204 pack 0 0;
#X msg 87 227 \$2 \$1;
#X obj 88 253 unpack 0 0;
#X obj 221 271 /;
#X obj 267 251 metro;
#X obj 141 81 t b b b;
#X obj 360 125 timer;
#X obj 271 37 bng 15 250 50 0 empty empty empty 17 7 0 10 -262144 -1
-1;
#X obj 41 173 expr 60000 / $f1;
#X obj 351 40 r hitdecaymax;
#X obj 377 196 /;
#X floatatom 347 248 5 0 0 0 - - -, f 5;
#X obj 370 161 expr $f2 - $f1;
#X obj 414 290 clip 0 1;
#X obj 351 335 sel 0;
#X floatatom 496 491 5 0 0 0 - - -, f 5;
#X obj 515 437 counter 0 2;
#X obj 369 396 t b f;
#X obj 274 434 pack 0 1;
#X obj 166 466 route 0 1 2;
#X obj 113 496 outlet;
#X obj 170 506 outlet;
#X obj 247 503 outlet;
#X msg 509 379 set 0;
#X connect 0 0 12 0;
#X connect 1 0 7 0;
#X connect 2 0 7 0;
#X connect 3 0 7 0;
#X connect 4 0 1 0;
#X connect 4 1 2 0;
#X connect 4 2 3 0;
#X connect 5 0 4 0;
#X connect 6 0 15 0;
#X connect 7 0 8 0;
#X connect 8 0 9 0;
#X connect 9 0 10 0;
#X connect 9 1 10 1;
#X connect 10 0 11 1;
#X connect 11 0 13 1;
#X connect 12 0 11 0;
#X connect 12 1 5 0;
#X connect 12 2 13 0;
#X connect 13 0 19 0;
#X connect 14 0 12 0;
#X connect 15 0 7 1;
#X connect 16 0 17 1;
#X connect 16 0 19 1;
#X connect 17 0 18 0;
#X connect 17 0 20 0;
#X connect 19 0 17 0;
#X connect 20 0 21 0;
#X connect 21 1 24 0;
#X connect 23 0 22 0;
#X connect 23 0 25 0;
#X connect 24 0 23 0;
#X connect 24 1 25 1;
#X connect 25 0 26 0;
#X connect 26 0 27 0;
#X connect 26 1 28 0;
#X connect 26 2 29 0;
#X connect 30 0 23 0;
#X restore 376 368 pd cycler;
#X msg 270 480 5 4000;
#X obj 312 415 t b f;
#X obj 455 435 sig~;
#X obj 533 435 sig~;
#X obj 601 433 sig~;
#X obj 703 440 osc~;
#X obj 759 440 osc~;
#X obj 811 449 osc~;
#X obj 696 401 *~;
#X obj 861 404 line~;
#X obj 753 398 *~;
#X obj 810 402 *~;
#X obj 704 476 *~;
#X obj 755 473 *~;
#X obj 810 482 *~;
#X msg 858 377 \$1 5;
#X obj 897 456 sig~;
#X msg 897 430 500;
#X obj 697 522 +~;
#X obj 752 524 +~;
#X obj 807 524 +~;
#X obj 694 133 select -2 -1 0 1 2;
#X msg 981 357 3.03;
#X msg 1034 358 7.07;
#X msg 889 351 0.95;
#X msg 844 349 0.45;
#X msg 935 354 0;
#X msg 943 432 0;
#X obj 982 402 r depth;
#X msg 912 398 set \$1;
#X connect 0 0 13 0;
#X connect 1 0 15 0;
#X connect 2 0 17 0;
#X connect 3 0 24 0;
#X connect 4 0 10 0;
#X connect 5 0 11 0;
#X connect 6 0 12 0;
#X connect 7 0 10 1;
#X connect 8 0 11 1;
#X connect 9 0 12 1;
#X connect 10 0 21 0;
#X connect 11 0 21 0;
#X connect 12 0 21 0;
#X connect 13 0 14 0;
#X connect 14 0 25 0;
#X connect 15 0 16 0;
#X connect 16 0 26 0;
#X connect 17 0 18 0;
#X connect 18 0 27 0;
#X connect 19 0 23 0;
#X connect 19 0 20 0;
#X connect 20 0 7 2;
#X connect 20 0 8 2;
#X connect 20 0 9 2;
#X connect 22 0 7 0;
#X connect 22 1 8 0;
#X connect 22 2 9 0;
#X connect 23 0 7 1;
#X connect 23 0 8 1;
#X connect 23 0 9 1;
#X connect 24 0 22 0;
#X connect 24 1 44 0;
#X connect 25 0 31 0;
#X connect 25 0 41 0;
#X connect 26 0 33 0;
#X connect 26 0 42 0;
#X connect 27 0 34 0;
#X connect 27 0 43 0;
#X connect 28 0 35 0;
#X connect 29 0 36 0;
#X connect 30 0 37 0;
#X connect 31 0 28 0;
#X connect 32 0 31 1;
#X connect 32 0 33 1;
#X connect 32 0 34 1;
#X connect 33 0 29 0;
#X connect 34 0 30 0;
#X connect 35 0 41 1;
#X connect 36 0 42 1;
#X connect 37 0 43 1;
#X connect 38 0 32 0;
#X connect 39 0 35 1;
#X connect 39 0 36 1;
#X connect 39 0 37 1;
#X connect 40 0 39 0;
#X connect 41 0 4 0;
#X connect 42 0 5 0;
#X connect 43 0 6 0;
#X connect 44 0 48 0;
#X connect 44 0 40 0;
#X connect 44 1 47 0;
#X connect 44 1 40 0;
#X connect 44 2 49 0;
#X connect 44 2 50 0;
#X connect 44 3 45 0;
#X connect 44 3 40 0;
#X connect 44 4 46 0;
#X connect 44 4 40 0;
#X connect 45 0 38 0;
#X connect 46 0 38 0;
#X connect 47 0 38 0;
#X connect 48 0 38 0;
#X connect 49 0 38 0;
#X connect 50 0 39 0;
#X connect 51 0 52 0;
#X connect 52 0 40 0;
#X restore 378 107 pd button5;
#N canvas 369 0 733 893 button6 0;
#X obj 463 344 inlet;
#X obj 535 345 inlet;
#X obj 611 341 inlet;
#X obj 313 392 inlet;
#X obj 455 461 osc~;
#X obj 536 463 osc~;
#X obj 602 461 osc~;
#N canvas 0 0 1472 893 enveloping 0;
#X obj 595 371 vline~;
#X obj 674 430 pow~;
#X msg 753 357 20;
#X obj 765 321 loadbang;
#X obj 518 235 inlet;
#X obj 594 230 inlet;
#X obj 707 400 sig~;
#X obj 851 375 inlet;
#X obj 686 489 outlet~;
#X text 727 118 Inlets: 1 - Execute envelope (bang) 2 - Attack and
Decay pair 3 - log magnitude;
#X obj 591 261 unpack 0 0;
#X obj 582 293 pack 0 0 0;
#X msg 590 327 \$1 \$2 \, 0 \$3 \$2;
#X connect 0 0 1 0;
#X connect 1 0 8 0;
#X connect 2 0 6 0;
#X connect 3 0 2 0;
#X connect 4 0 11 0;
#X connect 5 0 10 0;
#X connect 6 0 1 1;
#X connect 7 0 6 0;
#X connect 10 0 11 1;
#X connect 10 1 11 2;
#X connect 11 0 12 0;
#X connect 12 0 0 0;
#X restore 361 500 pd enveloping;
#N canvas 0 0 1500 917 enveloping 0;
#X obj 595 371 vline~;
#X obj 674 430 pow~;
#X msg 753 357 20;
#X obj 765 321 loadbang;
#X obj 518 235 inlet;
#X obj 594 230 inlet;
#X obj 707 400 sig~;
#X obj 851 375 inlet;
#X obj 686 489 outlet~;
#X text 727 118 Inlets: 1 - Execute envelope (bang) 2 - Attack and
Decay pair 3 - log magnitude;
#X obj 591 261 unpack 0 0;
#X obj 582 293 pack 0 0 0;
#X msg 590 327 \$1 \$2 \, 0 \$3 \$2;
#X connect 0 0 1 0;
#X connect 1 0 8 0;
#X connect 2 0 6 0;
#X connect 3 0 2 0;
#X connect 4 0 11 0;
#X connect 5 0 10 0;
#X connect 6 0 1 1;
#X connect 7 0 6 0;
#X connect 10 0 11 1;
#X connect 10 1 11 2;
#X connect 11 0 12 0;
#X connect 12 0 0 0;
#X restore 478 503 pd enveloping;
#N canvas 0 0 1500 917 enveloping 0;
#X obj 595 371 vline~;
#X obj 674 430 pow~;
#X msg 753 357 20;
#X obj 765 321 loadbang;
#X obj 518 235 inlet;
#X obj 594 230 inlet;
#X obj 707 400 sig~;
#X obj 851 375 inlet;
#X obj 686 489 outlet~;
#X text 727 118 Inlets: 1 - Execute envelope (bang) 2 - Attack and
Decay pair 3 - log magnitude;
#X obj 591 261 unpack 0 0;
#X obj 582 293 pack 0 0 0;
#X msg 590 327 \$1 \$2 \, 0 \$3 \$2;
#X connect 0 0 1 0;
#X connect 1 0 8 0;
#X connect 2 0 6 0;
#X connect 3 0 2 0;
#X connect 4 0 11 0;
#X connect 5 0 10 0;
#X connect 6 0 1 1;
#X connect 7 0 6 0;
#X connect 10 0 11 1;
#X connect 10 1 11 2;
#X connect 11 0 12 0;
#X connect 12 0 0 0;
#X restore 596 506 pd enveloping;
#X obj 401 551 *~;
#X obj 465 555 *~;
#X obj 544 551 *~;
#X obj 460 378 +;
#X obj 455 405 mtof;
#X obj 533 377 +;
#X obj 528 404 mtof;
#X obj 610 378 +;
#X obj 605 405 mtof;
#X obj 283 449 loadbang;
#X msg 330 479 10;
#X obj 334 611 outlet~;
#N canvas 511 296 450 300 cycler 0;
#X obj 150 43 inlet;
#X msg 219 175 1;
#X msg 265 175 2;
#X msg 306 173 3;
#X obj 236 133 sel 0 1 2;
#X obj 232 99 random 3;
#X obj 49 151 r basetempo;
#X obj 89 204 pack 0 0;
#X msg 87 227 \$2 \$1;
#X obj 88 253 unpack 0 0;
#X obj 221 271 /;
#X obj 267 251 metro;
#X obj 141 81 t b b b;
#X obj 360 125 timer;
#X obj 271 37 bng 15 250 50 0 empty empty empty 17 7 0 10 -262144 -1
-1;
#X obj 41 173 expr 60000 / $f1;
#X obj 351 40 r hitdecaymax;
#X obj 377 196 /;
#X floatatom 347 248 5 0 0 0 - - -, f 5;
#X obj 370 161 expr $f2 - $f1;
#X obj 414 290 clip 0 1;
#X obj 351 335 sel 0;
#X floatatom 496 491 5 0 0 0 - - -, f 5;
#X obj 515 437 counter 0 2;
#X obj 369 396 t b f;
#X obj 274 434 pack 0 1;
#X obj 166 466 route 0 1 2;
#X obj 113 496 outlet;
#X obj 170 506 outlet;
#X obj 247 503 outlet;
#X msg 509 379 set 0;
#X connect 0 0 12 0;
#X connect 1 0 7 0;
#X connect 2 0 7 0;
#X connect 3 0 7 0;
#X connect 4 0 1 0;
#X connect 4 1 2 0;
#X connect 4 2 3 0;
#X connect 5 0 4 0;
#X connect 6 0 15 0;
#X connect 7 0 8 0;
#X connect 8 0 9 0;
#X connect 9 0 10 0;
#X connect 9 1 10 1;
#X connect 10 0 11 1;
#X connect 11 0 13 1;
#X connect 12 0 11 0;
#X connect 12 1 5 0;
#X connect 12 2 13 0;
#X connect 13 0 19 0;
#X connect 14 0 12 0;
#X connect 15 0 7 1;
#X connect 16 0 17 1;
#X connect 16 0 19 1;
#X connect 17 0 18 0;
#X connect 17 0 20 0;
#X connect 19 0 17 0;
#X connect 20 0 21 0;
#X connect 21 1 24 0;
#X connect 23 0 22 0;
#X connect 23 0 25 0;
#X connect 24 0 23 0;
#X connect 24 1 25 1;
#X connect 25 0 26 0;
#X connect 26 0 27 0;
#X connect 26 1 28 0;
#X connect 26 2 29 0;
#X connect 30 0 23 0;
#X restore 376 368 pd cycler;
#X msg 270 480 5 4000;
#X obj 312 415 t b f;
#X obj 455 435 sig~;
#X obj 533 435 sig~;
#X obj 601 433 sig~;
#X obj 703 440 osc~;
#X obj 759 440 osc~;
#X obj 811 449 osc~;
#X obj 696 401 *~;
#X obj 861 404 line~;
#X obj 753 398 *~;
#X obj 810 402 *~;
#X obj 704 476 *~;
#X obj 755 473 *~;
#X obj 810 482 *~;
#X msg 858 377 \$1 5;
#X obj 897 456 sig~;
#X msg 897 430 500;
#X obj 697 522 +~;
#X obj 752 524 +~;
#X obj 807 524 +~;
#X obj 694 133 select -2 -1 0 1 2;
#X msg 981 357 3.03;
#X msg 1034 358 7.07;
#X msg 889 351 0.95;
#X msg 844 349 0.45;
#X msg 935 354 0;
#X msg 943 432 0;
#X obj 982 402 r depth;
#X msg 912 398 set \$1;
#X connect 0 0 13 0;
#X connect 1 0 15 0;
#X connect 2 0 17 0;
#X connect 3 0 24 0;
#X connect 4 0 10 0;
#X connect 5 0 11 0;
#X connect 6 0 12 0;
#X connect 7 0 10 1;
#X connect 8 0 11 1;
#X connect 9 0 12 1;
#X connect 10 0 21 0;
#X connect 11 0 21 0;
#X connect 12 0 21 0;
#X connect 13 0 14 0;
#X connect 14 0 25 0;
#X connect 15 0 16 0;
#X connect 16 0 26 0;
#X connect 17 0 18 0;
#X connect 18 0 27 0;
#X connect 19 0 23 0;
#X connect 19 0 20 0;
#X connect 20 0 7 2;
#X connect 20 0 8 2;
#X connect 20 0 9 2;
#X connect 22 0 7 0;
#X connect 22 1 8 0;
#X connect 22 2 9 0;
#X connect 23 0 7 1;
#X connect 23 0 8 1;
#X connect 23 0 9 1;
#X connect 24 0 22 0;
#X connect 24 1 44 0;
#X connect 25 0 31 0;
#X connect 25 0 41 0;
#X connect 26 0 33 0;
#X connect 26 0 42 0;
#X connect 27 0 34 0;
#X connect 27 0 43 0;
#X connect 28 0 35 0;
#X connect 29 0 36 0;
#X connect 30 0 37 0;
#X connect 31 0 28 0;
#X connect 32 0 31 1;
#X connect 32 0 33 1;
#X connect 32 0 34 1;
#X connect 33 0 29 0;
#X connect 34 0 30 0;
#X connect 35 0 41 1;
#X connect 36 0 42 1;
#X connect 37 0 43 1;
#X connect 38 0 32 0;
#X connect 39 0 35 1;
#X connect 39 0 36 1;
#X connect 39 0 37 1;
#X connect 40 0 39 0;
#X connect 41 0 4 0;
#X connect 42 0 5 0;
#X connect 43 0 6 0;
#X connect 44 0 48 0;
#X connect 44 0 40 0;
#X connect 44 1 47 0;
#X connect 44 1 40 0;
#X connect 44 2 49 0;
#X connect 44 2 50 0;
#X connect 44 3 45 0;
#X connect 44 3 40 0;
#X connect 44 4 46 0;
#X connect 44 4 40 0;
#X connect 45 0 38 0;
#X connect 46 0 38 0;
#X connect 47 0 38 0;
#X connect 48 0 38 0;
#X connect 49 0 38 0;
#X connect 50 0 39 0;
#X connect 51 0 52 0;
#X connect 52 0 40 0;
#X restore 470 105 pd button6;
#X msg 383 280 100;
#X obj 126 205 *~ 0.1;
#X obj 610 140 loadbang;
#X msg 612 169 0;
#X connect 2 0 1 0;
#X connect 3 0 24 0;
#X connect 4 0 32 0;
#X connect 5 0 33 0;
#X connect 6 0 34 0;
#X connect 7 0 35 0;
#X connect 8 0 36 0;
#X connect 9 0 29 0;
#X connect 10 0 11 0;
#X connect 11 0 12 0;
#X connect 12 0 13 0;
#X connect 12 1 14 0;
#X connect 12 2 15 0;
#X connect 12 3 16 0;
#X connect 12 4 17 0;
#X connect 12 5 18 0;
#X connect 12 6 19 0;
#X connect 12 7 20 0;
#X connect 12 8 21 0;
#X connect 12 9 22 0;
#X connect 12 10 30 0;
#X connect 13 0 23 0;
#X connect 14 0 23 0;
#X connect 15 0 23 0;
#X connect 16 0 23 0;
#X connect 17 0 23 0;
#X connect 18 0 23 0;
#X connect 19 0 23 0;
#X connect 20 0 23 0;
#X connect 21 0 23 0;
#X connect 22 0 23 0;
#X connect 23 0 24 1;
#X connect 23 0 28 1;
#X connect 23 1 24 2;
#X connect 23 1 28 2;
#X connect 23 1 32 1;
#X connect 23 2 24 3;
#X connect 23 2 28 3;
#X connect 23 2 33 1;
#X connect 23 2 32 2;
#X connect 23 3 28 4;
#X connect 23 3 34 1;
#X connect 23 3 33 2;
#X connect 23 3 32 3;
#X connect 23 4 28 5;
#X connect 23 4 35 1;
#X connect 23 4 34 2;
#X connect 23 4 33 3;
#X connect 23 5 28 6;
#X connect 23 5 36 1;
#X connect 23 5 35 2;
#X connect 23 5 34 3;
#X connect 23 6 28 7;
#X connect 23 6 36 2;
#X connect 23 6 35 3;
#X connect 23 7 28 8;
#X connect 23 7 36 3;
#X connect 24 0 38 0;
#X connect 27 0 26 0;
#X connect 28 0 38 0;
#X connect 29 0 28 0;
#X connect 29 1 12 0;
#X connect 30 0 23 0;
#X connect 31 0 37 0;
#X connect 31 0 27 0;
#X connect 32 0 38 0;
#X connect 33 0 38 0;
#X connect 34 0 38 0;
#X connect 35 0 38 0;
#X connect 36 0 38 0;
#X connect 37 0 25 0;
#X connect 38 0 0 0;
#X connect 39 0 40 0;
#X connect 40 0 29 0;
